<?xml version="1.0" standalone="no"?> 
<!DOCTYPE svg PUBLIC "-//W3C//DTD SVG 1.1//EN" "http://www.w3.org/Graphics/SVG/1.1/DTD/svg11.dtd" >
<svg xmlns="http://www.w3.org/2000/svg">
<defs>
  <font id="mettel-icons" horiz-adv-x="612">
    <font-face font-family="mettel-icons"
      units-per-em="512" ascent="448"
      descent="64" />
    <missing-glyph horiz-adv-x="0" />
    <glyph glyph-name="action-menu-alt"
      unicode="&#xE001;"
      horiz-adv-x="512" d=" M0 108.80000000000001H294.4V67.19999999999999H0z M0 214.39999999999998H294.4V172.79999999999995H0z M0 316.8H294.4V275.2H0z M512 179.2L496 163.2L441.6 220.8L387.2 163.2L371.2 179.2L441.6 249.60000000000002z" />
    <glyph glyph-name="action-menu"
      unicode="&#xE002;"
      horiz-adv-x="512" d=" M0 318.144H294.39999999999986V276.096H-2.2737367544323206e-13z M0 213.024H294.39999999999986V170.976H-2.2737367544323206e-13z M0 107.904H294.39999999999986V65.856H-2.2737367544323206e-13z M441.5680000000002 135.23199999999997L371.1360000000002 205.664L385.82400000000007 220.38400000000001L441.5680000000002 164.67200000000003L497.3120000000001 220.38400000000001L512.0320000000002 205.664z" />
    <glyph glyph-name="address-book"
      unicode="&#xE003;"
      horiz-adv-x="512" d=" M448 448H96C78.4 448 64 433.6 64 416V400H48C39.2 400 32 392.8 32 384S39.2 368 48 368H64V304H48C39.2 304 32 296.8 32 288S39.2 272 48 272H64V208H48C39.2 208 32 200.8 32 192S39.2 176 48 176H64V112H48C39.2 112 32 104.80000000000001 32 96S39.2 80 48 80H64V16H48C39.2 16 32 8.800000000000011 32 0S39.2 -16 48 -16H64V-32C64 -49.60000000000002 78.4 -64 96 -64H448C465.6 -64 480 -49.60000000000002 480 -32V416C480 433.6 465.6 448 448 448zM368 100C368 99.19999999999999 368 97.60000000000002 367.2 96.80000000000001C366.4 96 364.8 96 364 96H180C179.2 96 177.6 96 176.8 96.80000000000001S176 99.19999999999999 176 100V108C176 115.19999999999999 178.4 121.60000000000002 183.2 126.39999999999998C188 131.2 194.39999999999998 135.2 200.79999999999998 138.39999999999998C207.99999999999997 141.59999999999997 215.2 144 221.6 146.39999999999998S234.4 152 239.2 156.79999999999995S246.39999999999998 165.59999999999997 246.39999999999998 171.99999999999994C245.59999999999997 172.79999999999995 244.79999999999998 173.59999999999997 243.99999999999997 174.39999999999992C243.19999999999996 175.99999999999994 240.79999999999998 178.39999999999992 238.39999999999998 183.19999999999993C235.99999999999997 187.19999999999993 233.59999999999997 191.99999999999994 231.2 196.79999999999993C228.79999999999998 201.59999999999994 227.2 207.99999999999991 225.6 215.99999999999991C224 223.99999999999991 223.2 231.99999999999991 223.2 239.99999999999991C223.2 252.79999999999993 228 264.79999999999995 237.6 273.5999999999999C247.2 283.19999999999993 258.4 287.9999999999999 271.2 287.9999999999999S296 283.19999999999993 304.8 273.5999999999999C314.40000000000003 263.9999999999999 319.2 252.7999999999999 319.2 239.99999999999991C319.2 231.99999999999991 318.4 223.99999999999991 316.8 215.99999999999991S312.8 201.5999999999999 310.40000000000003 196.79999999999993S305.6 187.19999999999993 303.20000000000005 183.19999999999993C300.80000000000007 179.19999999999993 299.20000000000005 175.99999999999994 296.80000000000007 174.39999999999992L296 172C296 166.39999999999998 298.4 161.60000000000002 303.2 156.8C308 152.8 314.4 149.60000000000002 320.8 146.40000000000003C328 144.00000000000006 335.2 140.8 341.6 138.40000000000003C348.8 135.20000000000005 354.40000000000003 131.20000000000005 359.20000000000005 126.40000000000003C364.00000000000006 121.60000000000002 366.40000000000003 115.20000000000005 366.40000000000003 108.00000000000006V100z" />
    <glyph glyph-name="alert-round"
      unicode="&#xE004;"
      horiz-adv-x="512" d=" M504.35657142857144 -38.52800000000002C494.28114285714287 -54.52800000000002 477.1108571428572 -64.01828571428575 458.71542857142856 -64.01828571428575H53.35771428571429C34.99885714285714 -64.01828571428575 17.810285714285715 -54.52800000000002 7.734857142857143 -38.52800000000002C-1.7554285714285705 -23.094857142857165 -2.358857142857142 -3.584000000000003 5.3577142857142865 13.019428571428534L208.0365714285714 418.37714285714287C217.54514285714282 436.7542857142857 235.88571428571424 448.0182857142857 256.0365714285714 448.0182857142857C276.224 448.0182857142857 294.56457142857147 436.7542857142857 303.46971428571425 418.37714285714287L506.1485714285714 13.019428571428591C514.432 -3.584000000000003 513.8651428571428 -23.131428571428557 504.35657142857144 -38.52800000000002zM298.7154285714286 31.981714285714304C298.7154285714286 55.6982857142857 279.75314285714285 74.66057142857142 256.03657142857145 74.66057142857142C232.33828571428572 74.66057142857142 213.376 55.6982857142857 213.376 31.981714285714304S232.33828571428572 -10.697142857142865 256.03657142857145 -10.697142857142865C279.75314285714285 -10.697142857142865 298.7154285714286 8.265142857142848 298.7154285714286 31.981714285714304zM224.0365714285714 127.9817142857143H288.0365714285714V309.3394285714286H224.0365714285714V127.9817142857143z" />
    <glyph glyph-name="alert"
      unicode="&#xE005;"
      horiz-adv-x="512" d=" M256 442.51428571428573L512 -58.477714285714285H0L256 442.51428571428573zM256 340.48L75.95885714285714 -12.105142857142823H436.04114285714286L256 340.48zM232.81371428571427 238.40914285714288H279.1862857142857V182.7474285714286L269.89714285714285 108.50742857142859H242.0662857142857L232.81371428571427 182.71085714285715V238.40914285714288zM232.81371428571427 34.30400000000003V80.67657142857149H279.1862857142857V34.30400000000003H232.81371428571427z" />
    <glyph glyph-name="approve"
      unicode="&#xE006;"
      horiz-adv-x="512" d=" M512 122.66057142857142C512 102.10742857142856 502.71085714285715 87.47885714285712 484.1325714285714 78.81142857142856C488.48457142857137 70.91200000000003 490.6422857142857 62.42742857142855 490.6422857142857 53.32114285714289C490.6422857142857 41.910857142857196 487.27771428571424 31.488000000000056 480.58514285714284 22.19885714285715S465.18857142857144 6.509714285714267 454.50971428571427 2.962285714285713C457.2891428571429 -2.5600000000000023 458.6422857142857 -8.886857142857139 458.6422857142857 -16.018285714285696C458.6422857142857 -29.43999999999994 453.99771428571427 -40.8137142857143 444.7085714285714 -50.10285714285715C435.45599999999996 -59.35542857142855 424.1188571428571 -64 410.66057142857136 -64H298.6788571428571C277.3577142857143 -64 256.98742857142855 -59.64799999999997 237.64114285714282 -50.98057142857141L128 0V224C188.85485714285713 264.66742857142856 228.93714285714285 298.2765714285714 248.32 324.75428571428574S277.3577142857143 381.6594285714286 277.3577142857143 416C277.3577142857143 424.66742857142856 280.5028571428571 432.2011428571429 286.82971428571426 438.528S300.6537142857143 448 309.32114285714283 448C321.97485714285716 448 333.60457142857143 440.1005714285714 344.28342857142854 424.3017142857143C356.49828571428566 407.33257142857144 362.6422857142857 386.7794285714286 362.6422857142857 362.67885714285717C362.6422857142857 350.8297142857143 360.96000000000004 337.18857142857144 357.59542857142856 321.792C354.2674285714285 306.3588571428571 350.90285714285716 294.0342857142857 347.5382857142857 284.7451428571428S342.3085714285714 270.81142857142856 341.9428571428571 270.81142857142856C340.736 267.264 341.1382857142857 263.8994285714286 343.1131428571428 260.75428571428574C345.08799999999997 257.57257142857145 348.0502857142857 256 352 256H463.98171428571425C477.4034285714285 256 488.77714285714285 251.3554285714286 498.0662857142857 242.06628571428573S512 221.44 512 208.01828571428572C512 188.26971428571431 503.296 174.0434285714286 485.9245714285714 165.33942857142858C503.296 155.86742857142855 512 141.64114285714282 512 122.66057142857142zM85.32114285714286 -53.32114285714283C85.32114285714286 -56.502857142857124 84.33371428571428 -59.062857142857126 82.35885714285715 -61.03771428571429C80.384 -63.01257142857145 77.824 -64 74.67885714285713 -64H10.678857142857135C7.533714285714279 -64 4.973714285714279 -63.01257142857145 2.998857142857136 -61.03771428571429S0 -56.502857142857124 0 -53.32114285714283V245.3211428571429C0 248.50285714285715 0.9874285714285713 251.06285714285715 2.962285714285714 253.03771428571432S7.497142857142856 256 10.678857142857142 256H74.67885714285713C77.82399999999998 256 80.42057142857142 255.01257142857145 82.39542857142855 253.0377142857143C84.37028571428569 251.06285714285713 85.35771428571427 248.50285714285715 85.35771428571427 245.32114285714283V-53.32114285714283z" />
    <glyph glyph-name="arrow-down"
      unicode="&#xE007;"
      horiz-adv-x="512" d=" M512 161.4628571428571L459.6297142857143 213.79657142857144L292.8274285714285 46.95771428571436L292.8274285714285 441.81942857142855L218.84342857142855 441.81942857142855L218.84342857142855 47.286857142857116L52.33371428571429 213.79657142857144L0 161.4628571428571L218.84342857142855 -57.34399999999994L218.84342857142855 -57.819428571428546L292.8274285714285 -57.819428571428546L292.8274285714285 -57.709714285714256z" />
    <glyph glyph-name="arrow-left"
      unicode="&#xE008;"
      horiz-adv-x="512" d=" M508.928 216.48V167.55200000000002H96.96L293.92 -29.408000000000015L259.072 -64L3.0720000000000027 192L259.072 448L293.92 413.44L96.96 216.48H508.928z" />
    <glyph glyph-name="arrow-up"
      unicode="&#xE009;"
      horiz-adv-x="512" d=" M0 222.53714285714287L52.33371428571429 170.20342857142856L219.17257142857142 337.04228571428575L219.17257142857142 -57.819428571428546L293.1565714285714 -57.819428571428546L293.1565714285714 336.7131428571429L459.6297142857143 170.20342857142856L512 222.53714285714287L293.1565714285714 441.38057142857144L293.1565714285714 441.81942857142855L219.17257142857142 441.81942857142855L219.17257142857142 441.7097142857143z" />
    <glyph glyph-name="ban"
      unicode="&#xE00A;"
      horiz-adv-x="512" d=" M256.02133866800034 -64C114.37526048178712 -64 0 50.37526048178711 0 191.97866133199966S114.37526048178712 448 256.02133866800034 448S512.0426773360007 333.6247395182129 512.0426773360007 191.97866133199966S397.6247395182129 -64 256.02133866800034 -64zM112.02800700175044 100.73451696257393L347.26548303742607 335.9719929982495C321.18963074101856 353.1709594065183 289.7791114445278 362.64532799866635 256.02133866800034 362.64532799866635C161.78978077852796 362.64532799866635 85.35467200133367 286.210219221472 85.35467200133367 191.97866133199966C85.35467200133367 158.2208885554722 94.82904059348171 126.81036925898144 112.02800700175044 100.73451696257393zM164.73451696257396 47.985329665749816C190.8103692589814 30.786363257481014 222.2208885554722 21.31199466533303 255.97866133199963 21.31199466533303C350.210219221472 21.31199466533303 426.64532799866635 97.74710344252736 426.64532799866635 191.97866133199972C426.64532799866635 225.77911144452784 417.1709594065183 257.14695340501794 399.97199299824956 283.2228057014254L164.73451696257396 47.985329665749816z" />
    <glyph glyph-name="bars"
      unicode="&#xE00B;"
      horiz-adv-x="512" d=" M10.678857142857144 192H117.32114285714286C120.46628571428573 192 123.06285714285714 191.01257142857145 125.0377142857143 189.03771428571434C127.01257142857142 187.06285714285718 128 184.50285714285718 128 181.3211428571429V-53.35771428571422C128 -56.502857142857124 127.01257142857142 -59.09942857142852 125.03771428571426 -61.07428571428568C123.06285714285714 -63.01257142857145 120.50285714285714 -64 117.32114285714286 -64H10.678857142857144C7.497142857142859 -64 4.937142857142857 -63.01257142857145 2.962285714285713 -61.03771428571429C0.9874285714285682 -59.062857142857126 0 -56.502857142857124 0 -53.35771428571422V181.3211428571429C0 184.46628571428573 0.9874285714285682 187.02628571428573 2.962285714285713 189.03771428571434C4.937142857142857 191.01257142857145 7.497142857142859 192 10.678857142857144 192zM202.6788571428571 448H309.32114285714283C312.46628571428573 448 315.0628571428571 447.01257142857145 317.0377142857143 445.0377142857143C319.01257142857145 443.0628571428571 320 440.5028571428571 320 437.32114285714283V-53.35771428571422C320 -56.502857142857124 319.01257142857145 -59.09942857142852 317.0377142857143 -61.07428571428568C315.0628571428571 -63.01257142857145 312.5028571428571 -64 309.32114285714283 -64H202.6788571428571C199.49714285714285 -64 196.93714285714285 -63.01257142857145 194.96228571428568 -61.03771428571429C192.98742857142852 -59.062857142857126 191.99999999999994 -56.502857142857124 191.99999999999994 -53.32114285714283V437.32114285714283C191.99999999999994 440.46628571428573 192.98742857142852 443.02628571428573 194.96228571428568 445.0377142857143C196.93714285714285 447.01257142857145 199.49714285714285 448 202.6788571428571 448zM394.6788571428571 320H501.32114285714283C504.46628571428573 320 507.0628571428571 319.0125714285714 509.0377142857143 317.0377142857143C511.01257142857145 315.0628571428572 512 312.5028571428571 512 309.32114285714283V-53.35771428571422C512 -56.502857142857124 511.01257142857145 -59.09942857142852 509.0377142857143 -61.07428571428568C507.0628571428571 -63.01257142857145 504.5028571428571 -64 501.32114285714283 -64H394.6788571428571C391.4971428571428 -64 388.9371428571428 -63.01257142857145 386.96228571428566 -61.03771428571429S384 -56.502857142857124 384 -53.32114285714283V309.32114285714283C384 312.46628571428573 384.9874285714285 315.0262857142857 386.96228571428566 317.0377142857143C388.9371428571428 319.0125714285714 391.4971428571428 320 394.6788571428571 320z" />
    <glyph glyph-name="bell"
      unicode="&#xE00C;"
      horiz-adv-x="511.9573226639994" d=" M501.3306659998333 31.981328665499746H10.669334000166709C6.529632408102025 31.981328665499746 2.3899308160373423 34.37125948153704 0.5974827040093362 38.51096107360178C-0.5974827040093357 42.65066266566646 0 47.38784696174042 2.944736184046012 50.37526048178711L95.98132866549972 142.85704759523213V288.0026673335C95.98132866549972 376.30207551887975 167.67925314661997 448 255.9786613319997 448S415.97599399849963 376.30207551887975 415.97599399849963 288.0026673335V142.81437025923145L509.0125864799533 50.33258314578643C511.9573226639994 47.38784696174042 512.5548053680087 42.65066266566646 511.4025172959906 38.51096107360178C509.6100691839627 34.37125948153704 505.47036759189797 31.981328665499746 501.3306659998333 31.981328665499746zM309.32533133283323 -10.69600733516711C309.32533133283323 -40.3140785196299 285.63940985246313 -64.04267733600068 255.9786613319997 -64.04267733600068S202.63199133116615 -40.35675585563058 202.63199133116615 -10.69600733516711H309.32533133283323z" />
    <glyph glyph-name="billing-tracker"
      unicode="&#xE00D;"
      horiz-adv-x="512" d=" M512 352V320H0V352C0 360.8 3.2 368 9.6 374.4C16 380.8 23.2 384 32 384H480C488.8 384 496 380.8 502.4 374.4C508.8 368 512 360.8 512 352zM0 224H512V32C512 23.19999999999999 508.8 16 502.4 9.600000000000023C496 3.1999999999999886 488.8 0 480 0H32C23.2 0 16 3.1999999999999886 9.600000000000001 9.600000000000023S0 23.19999999999999 0 32V224z" />
    <glyph glyph-name="bills"
      unicode="&#xE00E;"
      horiz-adv-x="512" d=" M445.0377142857143 285.0377142857143L285.0377142857143 445.0377142857143C282.2582857142857 447.01257142857145 279.6982857142857 448 277.32114285714283 448H96C87.29599999999999 448 79.79885714285713 444.8182857142857 73.472 438.528C67.14514285714284 432.2011428571429 64 424.66742857142856 64 416V-32C64 -40.70399999999995 67.14514285714284 -48.20114285714283 73.472 -54.52799999999996C79.79885714285713 -60.8548571428571 87.29599999999999 -64 96 -64H416C424.63085714285717 -64 432.2011428571428 -60.8548571428571 438.52799999999996 -54.52799999999996S448 -40.70399999999995 448 -32V277.32114285714283C448 279.6982857142857 447.01257142857145 282.25828571428576 445.0377142857143 285.0377142857143zM141.67771428571427 309.46742857142857C141.67771428571427 318.31771428571426 148.84571428571425 325.48571428571427 157.69599999999997 325.48571428571427H253.69599999999997C262.54628571428566 325.48571428571427 269.7142857142857 318.31771428571426 269.7142857142857 309.46742857142857V298.78857142857146C269.7142857142857 289.9382857142857 262.5462857142857 282.7702857142857 253.696 282.7702857142857H157.65942857142855C148.80914285714286 282.7702857142857 141.64114285714285 289.9382857142857 141.64114285714285 298.78857142857146L141.67771428571427 309.46742857142857L141.67771428571427 309.46742857142857zM376.31999999999994 42.82514285714285C376.31999999999994 34.01142857142861 369.15199999999993 26.806857142857098 360.30171428571424 26.806857142857098H157.65942857142855C148.80914285714286 26.806857142857098 141.64114285714285 34.011428571428496 141.64114285714285 42.82514285714285V53.50400000000002C141.64114285714285 62.35428571428565 148.80914285714286 69.52228571428572 157.65942857142855 69.52228571428572H360.3382857142857C369.1885714285714 69.52228571428572 376.35657142857144 62.39085714285716 376.35657142857144 53.50400000000002L376.31999999999994 42.82514285714285L376.31999999999994 42.82514285714285zM376.31999999999994 128.14628571428574C376.31999999999994 119.29600000000005 369.15199999999993 112.12799999999999 360.30171428571424 112.12799999999999H157.65942857142855C148.80914285714286 112.12799999999999 141.64114285714285 119.25942857142854 141.64114285714285 128.14628571428574V138.82514285714285C141.64114285714285 147.6754285714286 148.80914285714286 154.8434285714286 157.65942857142855 154.8434285714286H360.3382857142857C369.1885714285714 154.8434285714286 376.35657142857144 147.6754285714286 376.35657142857144 138.82514285714285L376.31999999999994 128.14628571428574L376.31999999999994 128.14628571428574zM376.31999999999994 213.46742857142857C376.31999999999994 204.61714285714285 369.15199999999993 197.44914285714287 360.30171428571424 197.44914285714287H157.65942857142855C148.80914285714286 197.44914285714287 141.64114285714285 204.61714285714285 141.64114285714285 213.46742857142857V224.1462857142857C141.64114285714285 232.99657142857143 148.80914285714286 240.1645714285714 157.65942857142855 240.1645714285714H360.3382857142857C369.1885714285714 240.1645714285714 376.35657142857144 232.99657142857143 376.35657142857144 224.1462857142857L376.31999999999994 213.46742857142857L376.31999999999994 213.46742857142857z" />
    <glyph glyph-name="buildings"
      unicode="&#xE00F;"
      horiz-adv-x="512" d=" M138.65866466616654 -64H10.669334000166709C4.737184296074018 -64 0 -59.26281570392598 0 -53.330665999833286V245.32533133283323C0 251.25748103692592 4.737184296074019 255.99466533299992 10.669334000166709 255.99466533299992H138.65866466616654C144.59081437025924 255.99466533299992 149.32799866633326 251.25748103692592 149.32799866633326 245.32533133283323V-53.330665999833286C149.32799866633326 -59.26281570392598 144.59081437025924 -64 138.65866466616654 -64zM501.3306659998333 448H202.67466866716677C196.74251896307408 448 192.00533466700008 443.262815703926 192.00533466700008 437.3306659998333V-53.330665999833286C192.00533466700008 -59.26281570392598 196.74251896307408 -64 202.67466866716677 -64H319.9946653329999V32.02400600150037H384.01066933400017V-64H501.3306659998333C507.262815703926 -64 512 -59.26281570392598 512 -53.330665999833286V437.3306659998333C512 443.262815703926 507.262815703926 448 501.3306659998333 448zM319.99466533299994 288.0026673335H255.9786613319997V352.01867133450025H319.99466533299994V288.0026673335zM319.99466533299994 128.00533466700006H255.9786613319997V192.0213386680003H319.99466533299994V128.00533466700006zM448.0266733350004 288.0026673335H384.01066933400017V352.01867133450025H448.0266733350004V288.0026673335zM448.0266733350004 128.00533466700006H384.01066933400017V192.0213386680003H448.0266733350004V128.00533466700006z" />
    <glyph glyph-name="calendar"
      unicode="&#xE010;"
      horiz-adv-x="512" d=" M512 415.9994195221942V-31.99941952219416C512 -49.78061566927272 497.7806156692728 -64 479.99941952219416 -64H32.00058047780579C14.219384330727229 -64 0 -49.78061566927278 0 -31.99941952219416V415.9994195221942C0 433.7806156692728 14.219384330727229 448 32.00058047780579 448H74.66802111488019V383.99883904438843C74.66802111488019 366.2222867197562 88.89204926805375 351.99825856658265 106.66860159268597 351.99825856658265S138.66918207049176 366.2222867197562 138.66918207049176 383.99883904438843V448H373.3401055744009V383.99883904438843C373.3401055744009 366.2222867197562 387.5594899051281 351.99825856658265 405.3406860522067 351.99825856658265S437.34126653001255 366.2222867197562 437.34126653001255 383.99883904438843V448H480.0087071670869C497.7759718468264 448 512 433.7806156692728 512 415.9994195221942zM160.00290238902895 245.32965697389665H74.66802111488019V159.99941952219422H160.00290238902895V245.32965697389665zM160.00290238902895 95.99825856658265H74.66802111488019V10.663377292433836H160.00290238902895V95.99825856658265zM298.6674406370744 245.32965697389665H213.3325593629256V159.99941952219422H298.662796814628V245.32965697389665zM298.6674406370744 95.99825856658265H213.3325593629256V10.663377292433836H298.662796814628V95.99825856658265zM437.33662270756616 245.32965697389665H352.00174143341735V159.99941952219422H437.33662270756616V245.32965697389665zM437.33662270756616 95.99825856658265H352.00174143341735V10.663377292433836H437.33662270756616V95.99825856658265z" />
    <glyph glyph-name="callcenter"
      unicode="&#xE011;"
      horiz-adv-x="512" d=" M455.2 305.6H426.4V322.4C426.4 391.2 370.4 448 300.8 448H211.2C142.39999999999998 448 85.6 391.2 85.6 322.4V305.6H56.8C40.8 305.6 27.999999999999996 292.79999999999995 27.999999999999996 276.79999999999995V220C27.999999999999996 204 40.8 191.2 56.8 191.2H85.6C88 191.2 90.39999999999999 192 92.8 192.79999999999998C104 158.39999999999998 130.4 131.2 164 116.79999999999995C167.2 115.19999999999993 169.6 113.59999999999997 172.8 112.79999999999995C172 110.39999999999998 171.20000000000002 107.99999999999994 171.20000000000002 105.59999999999997C171.20000000000002 89.59999999999997 184.00000000000003 76.79999999999995 200.00000000000003 76.79999999999995H228.80000000000004C244.80000000000004 76.79999999999995 257.6 89.59999999999997 257.6 105.59999999999997C257.6 109.59999999999997 256.8 112.79999999999995 255.20000000000002 115.99999999999994C254.4 117.59999999999997 252.8 119.19999999999993 252.00000000000003 121.59999999999997C251.20000000000002 122.39999999999998 251.20000000000002 123.19999999999999 250.40000000000003 123.99999999999994C248.80000000000004 126.39999999999992 246.40000000000003 127.99999999999994 243.20000000000005 129.59999999999997C243.20000000000005 129.59999999999997 243.20000000000005 129.59999999999997 243.20000000000005 129.59999999999997C239.20000000000005 131.99999999999994 234.40000000000003 134.39999999999998 228.80000000000004 134.39999999999998H216.80000000000004H212.80000000000004C159.20000000000005 134.39999999999998 115.20000000000005 178.39999999999998 115.20000000000005 231.99999999999997V276.79999999999995V321.59999999999997C115.20000000000005 375.19999999999993 159.20000000000005 419.19999999999993 212.80000000000004 419.19999999999993H302.40000000000003C356.00000000000006 419.19999999999993 400 375.19999999999993 400 321.59999999999997V276.79999999999995V231.99999999999994V219.99999999999994C400 203.99999999999994 412.8 191.19999999999993 428.8 191.19999999999993H457.6C473.6 191.19999999999993 486.40000000000003 203.99999999999994 486.40000000000003 219.99999999999994V276.79999999999995C483.2 292.8 470.4 305.6 455.2 305.6z M276.8 134.39999999999998C281.6 126.39999999999998 284 116.79999999999995 284 107.19999999999999C284 76 258.4 50.39999999999998 227.2 50.39999999999998H198.39999999999998C171.2 50.39999999999998 147.99999999999997 69.59999999999997 142.39999999999998 95.19999999999999C137.59999999999997 97.59999999999997 133.59999999999997 100 129.59999999999997 103.19999999999999C68.8 66.39999999999998 28.8 5.600000000000023 28.8 -64H484C483.2 40 392.8 124.80000000000001 276.8 134.39999999999998z M142.4 277.6C142.4 214.86045241922184 193.26045241922185 164 256 164C318.73954758077815 164 369.6 214.86045241922184 369.6 277.6C369.6 340.3395475807781 318.73954758077815 391.2 256 391.2C193.26045241922185 391.2 142.4 340.3395475807781 142.4 277.6z" />
    <glyph glyph-name="caret-down"
      unicode="&#xE012;"
      horiz-adv-x="512" d=" M256 43.66628571428572L0 299.66628571428566L40.3017142857143 340.29714285714283L256 124.63542857142858L471.6982857142857 340.3337142857143L512 299.70285714285717L256 43.66628571428572z" />
    <glyph glyph-name="caret-left"
      unicode="&#xE013;"
      horiz-adv-x="512" d=" M107.70285714285713 192L363.70285714285706 448L404.3337142857142 407.6982857142857L188.63542857142858 192L404.29714285714283 -23.698285714285703L363.66628571428566 -64L107.70285714285713 192z" />
    <glyph glyph-name="caret-right"
      unicode="&#xE014;"
      horiz-adv-x="512" d=" M404.3702857142857 192L148.37028571428573 -64L107.73942857142859 -23.698285714285703L323.4011428571428 192L107.6662857142857 407.6982857142857L148.33371428571428 448L404.3702857142857 192z" />
    <glyph glyph-name="caret-up"
      unicode="&#xE015;"
      horiz-adv-x="512" d=" M256 340.2971428571429L512 84.29714285714294L471.6982857142857 43.66628571428578L256 259.3645714285714L40.3017142857143 43.70285714285717L0 84.33371428571434L256 340.2971428571429z" />
    <glyph glyph-name="cart-outline"
      unicode="&#xE016;"
      horiz-adv-x="512" d=" M152.672 391.584H512L510.112 368.256C509.728 360.672 507.93600000000004 337.216 504.672 297.88800000000003C501.408 258.56 498.976 233.76 497.34400000000005 223.45600000000002C494.81600000000003 205.92000000000002 486.68800000000005 191.13600000000002 472.92800000000005 179.13600000000002C459.16800000000006 167.10400000000004 442.1120000000001 159.64800000000002 421.66400000000004 156.76800000000003C421.31200000000007 156.76800000000003 350.17600000000004 148.25600000000003 208.25600000000006 131.264V174.91199999999998C223.104 176.704 246.784 179.51999999999998 279.328 183.32799999999997C311.87199999999996 187.13599999999997 341.024 190.56 366.784 193.63199999999998S408.96 198.784 416 199.872C426.656 201.15200000000002 435.424 204.48000000000002 442.304 209.888C449.152 215.328 453.248 222.01600000000002 454.496 229.952C456.47999999999996 242.784 460 282.20799999999997 465.056 348.192H156.192V122.84800000000001C156.192 114.88 158.78400000000002 108.512 163.936 103.74400000000003C169.088 98.94400000000002 176.096 96.54400000000004 184.96 96.54400000000004H477.28V53.152000000000044H184.96C164.352 53.152000000000044 147.168 59.80800000000005 133.44 73.08800000000002C119.712 86.40000000000003 112.832 102.976 112.832 122.84800000000001V370.432C112.832 378.4 109.63199999999999 385.344 103.19999999999999 391.328C96.768 397.28 89.312 400.256 80.8 400.256H0V443.648H80.8C97.24799999999999 443.648 112.128 438.784 125.40799999999999 428.992C138.72 419.264 147.808 406.784 152.672 391.584zM125.568 14.367999999999995C134.07999999999998 22.879999999999995 144.256 27.103999999999985 156.224 27.103999999999985S178.368 22.847999999999956 186.88 14.367999999999995S199.61599999999999 -4.351999999999975 199.61599999999999 -16.28800000000001C199.61599999999999 -28.22399999999999 195.35999999999999 -38.432000000000016 186.88 -46.94400000000002C178.368 -55.424000000000035 168.192 -59.68000000000001 156.224 -59.68000000000001S134.07999999999998 -55.42399999999998 125.56799999999998 -46.94400000000002C117.05599999999998 -38.432000000000016 112.83199999999998 -28.224000000000046 112.83199999999998 -16.28800000000001C112.8 -4.351999999999975 117.056 5.887999999999977 125.568 14.367999999999995zM403.264 14.367999999999995C411.776 22.879999999999995 421.98400000000004 27.103999999999985 433.92 27.103999999999985C445.856 27.103999999999985 456.064 22.847999999999956 464.576 14.367999999999995S477.312 -4.351999999999975 477.312 -16.28800000000001C477.312 -28.22399999999999 473.088 -38.432000000000016 464.576 -46.94400000000002C456.064 -55.424000000000035 445.856 -59.68000000000001 433.92 -59.68000000000001C421.98400000000004 -59.68000000000001 411.776 -55.42399999999998 403.264 -46.94400000000002C394.752 -38.432000000000016 390.528 -28.224000000000046 390.528 -16.28800000000001C390.528 -4.351999999999975 394.752 5.887999999999977 403.264 14.367999999999995z" />
    <glyph glyph-name="cart"
      unicode="&#xE017;"
      horiz-adv-x="512" d=" M511.4148571428571 338.944L446.2445714285714 120.2834285714286C444.26971428571426 113.15199999999999 440.5028571428571 107.33714285714291 434.9805714285714 102.7657142857143C429.4217142857143 98.26742857142864 422.912 95.96342857142861 415.4148571428571 95.96342857142861H160C152.50285714285712 95.96342857142861 145.88342857142857 98.23085714285713 140.14171428571427 102.7657142857143C134.39999999999998 107.33714285714291 130.74285714285713 113.1154285714286 129.1702857142857 120.2834285714286L64 384H32C23.296 384 15.79885714285714 387.14514285714284 9.471999999999996 393.472C3.1451428571428597 399.7988571428572 0 407.296 0 416S3.1451428571428597 432.2011428571429 9.471999999999996 438.528C15.79885714285714 444.8182857142857 23.296 448 32 448H88.86857142857143C96.40228571428571 448 103.13142857142857 445.7325714285714 109.01942857142858 441.1977142857143C114.98057142857142 436.6262857142857 118.71085714285715 430.81142857142856 120.28342857142856 423.71657142857146L138.05714285714282 352H501.3211428571428C504.86857142857133 352 507.6479999999999 350.61028571428574 509.65942857142846 347.8674285714286C512 345.49028571428573 512.5851428571428 342.528 511.4148571428571 338.944zM164.75428571428571 -48.603428571428594C154.47771428571428 -38.326857142857136 149.35771428571425 -25.709714285714313 149.35771428571425 -10.678857142857169C149.35771428571425 4.3154285714285265 154.47771428571426 16.969142857142856 164.75428571428571 27.2457142857142C175.03085714285712 37.48571428571421 187.648 42.642285714285606 202.6788571428571 42.642285714285606C217.67314285714284 42.642285714285606 230.32685714285714 37.48571428571421 240.60342857142854 27.2457142857142C250.88 16.969142857142913 256 4.352000000000032 256 -10.64228571428572C256 -25.673142857142807 250.88 -38.29028571428569 240.60342857142854 -48.56685714285709C230.32685714285714 -58.84342857142855 217.67314285714284 -64 202.6788571428571 -64C187.648 -64 174.99428571428572 -58.84342857142855 164.75428571428571 -48.603428571428594zM335.3965714285714 -48.603428571428594C325.1565714285714 -38.326857142857136 320 -25.673142857142807 320 -10.64228571428572C320 4.352000000000032 325.1565714285714 17.005714285714305 335.3965714285714 27.282285714285706C345.67314285714286 37.558857142857164 358.29028571428563 42.67885714285711 373.3211428571428 42.67885714285711S400.9691428571428 37.55885714285705 411.24571428571414 27.282285714285706C421.48571428571415 17.005714285714248 426.64228571428555 4.351999999999975 426.64228571428555 -10.64228571428572C426.64228571428555 -25.673142857142807 421.48571428571415 -38.29028571428569 411.24571428571414 -48.56685714285709C400.96914285714286 -58.84342857142855 388.352 -64 373.32114285714283 -64S345.67314285714286 -58.84342857142855 335.3965714285714 -48.603428571428594z" />
    <glyph glyph-name="chat-filled"
      unicode="&#xE018;"
      horiz-adv-x="512" d=" M436.79999999999995 371.2C487.1679999999999 330.4 512 281.6 512 224S487.20000000000005 117.60000000000002 436.79999999999995 76.79999999999995C387.20000000000005 36 326.4000000000001 16 256 16C242.4000000000001 16 228 16.799999999999955 212.79999999999995 19.200000000000045C168 -25.567999999999984 122.39999999999986 -48 74.39999999999986 -48C69.59999999999991 -48 66.39999999999986 -45.60000000000002 63.99999999999977 -41.60000000000002C62.399999999999864 -36.831999999999994 63.19999999999982 -32.831999999999994 66.39999999999986 -29.600000000000023C69.59999999999991 -27.200000000000045 71.99999999999977 -24 75.99999999999977 -19.200000000000045C79.99999999999977 -14.432000000000016 84.79999999999973 -4.831999999999994 91.99999999999977 9.567999999999984S103.19999999999982 39.168000000000006 105.59999999999968 55.168000000000006C72.79999999999973 74.39999999999998 47.19999999999959 99.168 27.999999999999773 127.96799999999996C9.599999999999909 158.39999999999998 0 190.39999999999998 0 224C0 281.6 24.799999999999955 330.4 75.20000000000005 371.2C125.59999999999991 412 185.5999999999999 432 256 432S387.20000000000005 412 436.79999999999995 371.2z" />
    <glyph glyph-name="chat"
      unicode="&#xE019;"
      horiz-adv-x="512" d=" M398.7748571428571 428.3245714285714C429.9702857142857 428.3245714285714 456.63085714285717 417.2434285714286 478.75657142857136 395.0811428571429C500.91885714285706 372.9188571428572 512 346.2582857142857 512 315.0628571428572V187.06285714285718C512 155.8308571428572 500.91885714285706 129.20685714285713 478.75657142857136 107.04457142857143S429.93371428571425 73.80114285714285 398.7748571428571 73.80114285714285H298.13028571428566L179.712 -37.558857142857164C174.59199999999998 -42.05714285714282 168.85028571428572 -44.36114285714285 162.48685714285713 -44.36114285714285C159.19542857142855 -44.36114285714285 156.0137142857143 -43.70285714285711 152.94171428571426 -42.53257142857143C148.44342857142854 -40.48457142857143 144.7862857142857 -37.41257142857137 142.00685714285711 -33.316571428571365C139.22742857142853 -29.22057142857136 137.83771428571424 -24.685714285714198 137.83771428571424 -19.78514285714283V73.8011428571429H113.22514285714286C82.02971428571429 73.8011428571429 55.36914285714286 84.88228571428579 33.24342857142858 107.00800000000004C11.081142857142854 129.24342857142864 0 155.94057142857145 0 187.06285714285718V315.0628571428572C0 346.2582857142857 11.081142857142854 372.9188571428572 33.24342857142857 395.0811428571429C55.40571428571429 417.2434285714286 82.0662857142857 428.32457142857146 113.22514285714286 428.32457142857146H398.7748571428571zM462.7748571428571 187.06285714285718V315.0628571428572C462.7748571428571 332.6902857142857 456.48457142857137 347.7942857142857 443.97714285714284 360.3017142857143C431.46971428571425 372.8091428571429 416.4022857142857 379.0628571428572 398.7748571428571 379.0628571428572H113.22514285714286C95.59771428571428 379.0628571428572 80.49371428571429 372.8091428571429 67.98628571428571 360.3017142857143C55.47885714285714 347.7942857142857 49.225142857142856 332.72685714285717 49.225142857142856 315.0628571428572V187.06285714285718C49.225142857142856 169.43542857142864 55.47885714285714 154.29485714285715 67.98628571428571 141.824C80.49371428571429 129.31657142857142 95.56114285714285 123.06285714285718 113.22514285714286 123.06285714285718H187.06285714285713V35.072L278.4182857142857 123.06285714285718H398.7748571428571C416.40228571428565 123.06285714285718 431.5062857142857 129.31657142857142 443.97714285714284 141.824C456.48457142857137 154.368 462.7748571428571 169.43542857142853 462.7748571428571 187.06285714285718z" />
    <glyph glyph-name="check-thin"
      unicode="&#xE01A;"
      horiz-adv-x="512" d=" M221.728 -56.160000000000025L0 226.08L45.952 262.17600000000004L215.904 45.184000000000026L462.4 440.16L512 409.536L221.728 -56.160000000000025z" />
    <glyph glyph-name="check"
      unicode="&#xE01B;"
      horiz-adv-x="551.3846153846155" d=" M547.2492307692307 309.16923076923075L215.27630769230768 -22.80369230769236C212.28307692307692 -24.9304615384616 209.56553846153847 -25.993846153846164 207.00553846153844 -25.993846153846164S201.6886153846154 -24.9304615384616 198.73476923076922 -22.80369230769236L4.135384615384598 171.7563076923077C-1.3784615384615573 177.30953846153847 -1.3784615384615573 182.82338461538467 4.135384615384598 188.33723076923076L84.28307692307693 268.4849230769231C89.7969230769231 273.9987692307692 95.31076923076924 273.9987692307692 100.8246153846154 268.4849230769231L207.04492307692308 161.6344615384615L450.56 405.8978461538461C456.11323076923077 411.4116923076923 461.62707692307697 411.4116923076923 467.10153846153844 405.8978461538461L547.2492307692307 325.7501538461538C552.7630769230769 320.1969230769231 552.7630769230769 314.6830769230769 547.2492307692307 309.16923076923075z" />
    <glyph glyph-name="circle-empty"
      unicode="&#xE01C;"
      horiz-adv-x="512" d=" M256 448C114.61485714285715 448 0 333.38514285714285 0 192S114.61485714285715 -64 256 -64S512 50.614857142857204 512 192S397.3851428571428 448 256 448zM256 -24.941714285714284C136.2285714285714 -24.941714285714284 39.13142857142858 72.19200000000001 39.13142857142858 192C39.13142857142858 311.7714285714286 136.2285714285714 408.86857142857144 256 408.86857142857144C375.77142857142854 408.86857142857144 472.9417142857143 311.7714285714286 472.9417142857143 191.96342857142855C472.9417142857143 72.22857142857146 375.77142857142854 -24.941714285714284 256 -24.941714285714284z" />
    <glyph glyph-name="circle-filled"
      unicode="&#xE01D;"
      horiz-adv-x="512" d=" M256 448C397.3851428571428 448 512 333.38514285714285 512 192S397.3851428571428 -64 256 -64S0 50.614857142857204 0 192S114.61485714285715 448 256 448z" />
    <glyph glyph-name="circle-half"
      unicode="&#xE01E;"
      horiz-adv-x="512" d=" M256 448C114.61485714285715 448 0 333.38514285714285 0 192S114.61485714285715 -64 256 -64S512 50.614857142857204 512 192S397.3851428571428 448 256 448zM256 -24.941714285714284C136.2285714285714 -24.941714285714284 39.13142857142858 72.19200000000001 39.13142857142858 192H472.9417142857143C472.9417142857143 72.22857142857146 375.77142857142854 -24.941714285714284 256 -24.941714285714284z" />
    <glyph glyph-name="clear"
      unicode="&#xE01F;"
      horiz-adv-x="512" d=" M512 39.89942857142859L359.89942857142853 192L512 344.1005714285714L408.1005714285714 448L256 295.8994285714286L103.89942857142857 448L0 344.1005714285714L152.1005714285714 192L0 39.89942857142859L103.89942857142857 -64L256 88.10057142857147L408.1005714285714 -64z" />
    <glyph glyph-name="clock-filled"
      unicode="&#xE08B;"
      horiz-adv-x="512.0898245614036" d=" M491.7894736842105 291.2561403508772C478.3157894736842 322.8743859649123 460.081403508772 350.0912280701754 437.0863157894737 373.0863157894737C414.0912280701754 396.0814035087719 386.87438596491234 414.3157894736842 355.2561403508772 427.7894736842105S290.58245614035087 448 256 448L256 448C221.41754385964913 448 188.2722807017544 441.2631578947368 156.7438596491228 427.7894736842105S97.90877192982457 396.0814035087719 74.91368421052633 373.0863157894737S33.684210526315795 322.8743859649123 20.21052631578948 291.2561403508772S0 226.58245614035087 0 192S6.736842105263158 124.27228070175443 20.210526315789473 92.74385964912278C33.68421052631579 61.12561403508772 51.918596491228065 33.90877192982458 74.91368421052633 10.913684210526299S125.12561403508774 -30.31578947368422 156.7438596491228 -43.78947368421052S221.41754385964913 -64 256 -64C290.22315789473686 -64 322.8294736842105 -57.53263157894736 353.9985964912281 -44.59789473684208C385.16771929824563 -31.663157894736855 412.83368421052637 -13.069473684210493 436.99649122807017 11.093333333333362C461.159298245614 35.25614035087716 479.7529824561404 62.9221052631579 492.6877192982456 94.09122807017542S512.0898245614036 157.86666666666667 512.0898245614036 192.08982456140353C512.0898245614036 226.58245614035087 505.35298245614035 259.7277192982456 491.7894736842105 291.2561403508772zM362.4421052631579 91.39649122807015L229.86105263157896 172.41824561403507V343.5340350877193H282.1389473684211L282.1389473684211 343.5340350877193L282.1389473684211 343.5340350877193L282.1389473684211 343.5340350877193V201.79087719298244L389.9284210526316 135.76982456140348L362.4421052631579 91.39649122807015z" />
    <glyph glyph-name="clock"
      unicode="&#xE020;"
      horiz-adv-x="512" d=" M256 448C290.5703262013329 448 323.7039635215713 441.2655208698702 355.22132585057875 427.79656260961065C386.8284812346545 414.3276043493511 414.0357769203788 396.0996141704665 437.0227990178885 373.1125920729569C460.0098211153981 350.1255699754472 478.23781129428266 322.9182742897229 491.70676955454223 291.31111890564716C505.1757278148018 259.7039635215714 511.9102069449316 226.6601192564013 511.9102069449316 192.08979305506844C511.9102069449316 157.87863907400913 505.4451069800069 125.28376008418104 492.5149070501578 94.1255699754472S460.9975447211504 35.31111890564716 436.8432129077516 11.156787092248408S385.0326201332865 -31.58470712030862 353.8744300245528 -44.514907050157774C322.716239915819 -57.445106980006926 290.12136092599087 -63.91020694493159 255.91020694493156 -63.91020694493159C221.3398807435987 -63.91020694493159 188.2062434233602 -57.1757278148018 156.68888109435284 -43.706769554542234C125.0817257102771 -30.237811294282665 97.87443002455278 -12.009821115398097 74.88740792704314 10.977200982111526S33.672395650648895 61.17151876534547 20.20343739038934 92.77867414942125C6.734479130129778 124.29603647842868 0 157.42967379866712 0 192C0 226.57032620133288 6.734479130129778 259.7039635215714 20.203437390389336 291.22132585057875S51.99017888460189 350.1255699754472 74.97720098211153 373.0227990178885S125.17151876534548 414.2378112942827 156.77867414942122 427.7067695545423S221.3398807435987 448 256 448L256 448zM401.64433532094 46.35566467906C421.03963521571376 65.75096457383381 435.8554893019993 88.01964223079625 446.18169063486494 113.16169764994743S461.71588916169765 164.61311820413897 461.71588916169765 192.00000000000006C461.71588916169765 229.26411785338485 452.5569975447211 263.65485794458095 434.14942125569974 295.17222027358827S390.779375657664 351.7418449666784 359.1722202735882 370.1494212556998C327.5650648895124 388.5569975447212 293.1743247983163 397.71588916169765 256 397.71588916169765S184.34514205541913 388.5569975447212 152.8277797264118 370.14942125569974S96.25815503332164 326.779375657664 77.85057874430025 295.1722202735882S50.28411083830235 229.26411785338482 50.28411083830235 192S59.443002455278844 120.43493511048757 77.85057874430024 88.82777972641185C96.25815503332163 57.220624342336066 121.22062434233601 32.258155033321714 152.82777972641176 13.850578744300321S218.8256752016836 -13.715889161697646 256 -13.715889161697646C283.3868817958611 -13.715889161697646 309.69624693090145 -8.507891967730586 334.83830235005263 1.8183093651350646C359.98035776920375 12.144510698000772 382.2490354261662 27.050157839354654 401.64433532094 46.35566467906zM282.1297790249035 343.48088390038583V201.78744300245526L389.8814451069799 135.78954752718346L362.49456331111884 91.34198526832688L229.87022097509643 172.42511399508948V343.48088390038583L282.1297790249035 343.48088390038583L282.1297790249035 343.48088390038583z" />
    <glyph glyph-name="close-alt"
      unicode="&#xE021;"
      horiz-adv-x="512" d=" M512 394.7262068914664L309.2756807774837 191.99811233104992L512.0000000000001 -10.726206891466461L458.7262068914665 -64L256.0018876689501 138.72431922251633L53.27756844643369 -64.00000000000011L0 -10.726206891466461L202.72431922251639 191.99811233104992L0 394.7262068914664L53.2737931085336 448L255.99811233105 245.27568077748361L458.72620689146646 448L512 394.7262068914664z" />
    <glyph glyph-name="close"
      unicode="&#xE022;"
      horiz-adv-x="512" d=" M512 424.17493333333334L488.2090666666667 448L256 215.8250666666667L23.825066666666665 448L0 424.17493333333334L232.1749333333333 192L0 -40.20906666666667L23.825066666666665 -64L256 168.17493333333334L488.2090666666667 -64L512 -40.20906666666667L279.82506666666666 192L512 424.17493333333334z" />
    <glyph glyph-name="compose"
      unicode="&#xE023;"
      horiz-adv-x="512" d=" M489.58171428571427 408.13714285714286C501.39428571428573 396.32457142857146 507.3188571428571 382.09828571428574 507.3188571428571 365.5314285714286S501.39428571428573 334.7382857142857 489.58171428571427 322.9257142857143L414.2445714285714 247.5885714285714V-64H4.644571428571453V420.05942857142855H314.5142857142857L308.6628571428571 414.53714285714284L270.848 373.5405714285714H51.199999999999996V-17.40799999999996H367.7257142857143V201.03314285714288L281.08799999999997 114.35885714285712L125.696 66.37714285714287L173.97028571428572 221.76914285714284L382.53714285714284 430.33599999999996C393.984 442.0754285714286 408.13714285714286 448 425.0331428571428 448S456.0822857142857 442.0754285714286 467.4925714285714 430.2628571428572L489.58171428571427 408.13714285714286zM256.58514285714284 155.06285714285718L398.29942857142856 296.74057142857146L356.3885714285714 338.6148571428572L214.6742857142857 196.93714285714287L200.4114285714286 151.25942857142854L210.87085714285712 141.09257142857138L256.58514285714284 155.06285714285718zM457.0331428571428 355.76685714285713C459.55657142857143 358.29028571428574 460.79999999999995 361.50857142857143 460.79999999999995 365.38514285714285C460.79999999999995 369.2617142857143 459.5931428571428 372.55314285714286 457.0331428571428 375.2594285714286L434.944 397.6411428571429C432.4205714285714 400.16457142857143 429.09257142857143 401.408 425.0331428571428 401.408S417.64571428571423 400.16457142857143 415.1222857142857 397.6411428571429L389.26628571428563 371.456L431.1405714285713 329.5817142857143L457.0331428571428 355.76685714285713z" />
    <glyph glyph-name="custom-reports"
      unicode="&#xE024;"
      horiz-adv-x="512" d=" M448 160C448 97.60000000000002 426.4 44.80000000000001 382.4 1.6000000000000227C339.2 -42.39999999999998 286.4 -64 224 -64S108.8 -42.39999999999998 65.6 1.6000000000000227S0 97.60000000000002 0 160S21.6 275.2 65.6 318.4C108.8 362.4 161.6 384 224 384V160H448zM512 213.6C512 210.4 511.2 208 508.8 205.6C507.2 204 504 202.4 500.8 202.4H266.4V437.6C266.4 440.8 267.2 443.2 269.59999999999997 445.6C272 447.2 274.4 448 277.6 448C342.40000000000003 448 397.6 424.8 443.20000000000005 379.2S512 278.4 512 213.6z" />
    <glyph glyph-name="doc"
      unicode="&#xE025;"
      horiz-adv-x="512.0288955358653" d=" M42.693154241209996 448H469.35018906258813V92.15147581691974L314.09447485749763 -64H42.693154241209996V182.52226423613075H90.0962808284892V-16.58242564478803H294.2432417179299L421.94706247530894 111.72820136576559V400.5968734127208H42.693154241209996V448zM145.50347085049944 291.8485241830803C145.50347085049944 250.57125119927764 127.03922343247359 229.9253908234099 90.09628082848918 229.9253908234099H42.693154241209996V353.1937468254416H96.61222416614933C113.60279925503697 353.1937468254416 125.9845363733845 347.4146396523506 133.8007788249901 335.8564253061685C141.602573508663 324.2982109599865 145.50347085049944 309.63372650826796 145.50347085049944 291.8485241830803zM71.1408093007506 258.3730458829505H88.30475760483097C94.63287995936565 258.3730458829505 99.70404650375302 260.4968677690615 103.57604830972403 264.7445115412834C107.43360234776229 268.99215531350535 109.80303628872961 273.3842767650545 110.684350132626 277.93532366386364C111.58011174445511 282.4574750268074 112.01354478243692 287.29747728427117 112.01354478243692 292.45533043625494C112.01354478243692 295.2004063434731 111.75348495964784 298.08995993001867 111.27670861786781 301.05175235622784C110.78548450815508 303.9990970145042 109.75969298493143 307.45211355042613 108.17043851233139 311.41080196399344C106.58118403973135 315.36949037756085 103.86500366837856 318.57689485862636 100.03634516620575 321.03301540719C96.16434336023478 323.50358372368646 91.48326655003103 324.74609176590104 85.94977143179636 324.74609176590104H71.1408093007506V258.3730458829505zM171.87064732772728 335.85642530616855C181.9407415768384 347.4146396523506 195.17489700321687 353.1937468254416 211.57311360686268 353.1937468254416S241.24882894068512 347.4146396523506 251.42005756532535 335.85642530616855S266.6913482702184 309.5325921327389 266.6913482702184 291.5595688244258S261.59128618996556 258.8209266888651 251.42005756532535 247.27716011061577S227.97133021050848 229.93983859134266 211.57311360686268 229.93983859134266S181.9407415768384 235.7189457644337 171.87064732772728 247.27716011061577S156.7582820700942 273.58654551611266 156.7582820700942 291.5595688244258S161.80055307861616 324.2982109599865 171.87064732772728 335.85642530616855zM211.57311360686268 259.2688074947796C217.10660872509732 259.2688074947796 222.10553642982106 261.73937581127603 226.52655341723573 266.68051244426886C230.99091370844855 271.62164907726174 233.20142220215584 279.91466787064735 233.20142220215584 291.5740165923585C233.20142220215584 303.2478130820024 230.99091370844855 311.540831875388 226.52655341723573 316.4819685083809C222.07664089395564 321.4231051413737 217.10660872509735 323.8936734578701 211.57311360686268 323.8936734578701C206.2418872396862 323.8936734578701 201.35854167842427 321.4231051413737 196.87973361927874 316.4819685083809C192.44426886393137 311.540831875388 190.21931260229132 303.2478130820024 190.21931260229132 291.5740165923585C190.21931260229132 279.91466787064735 192.44426886393137 271.62164907726174 196.87973361927874 266.68051244426886C201.35854167842427 261.7249280433433 206.2418872396862 259.2688074947796 211.57311360686268 259.2688074947796zM241.79784412212877 21.342965178621853V163.58124047632487H384.02167165189906V116.17811388904568H289.2154184773407V21.371860714487298L241.79784412212877 21.342965178621853L241.79784412212877 21.342965178621853zM333.65675263841075 324.74609176590104C326.33173429651777 324.74609176590104 321.072746769005 321.68316496416276 317.7786556803431 315.5573113606863C314.52790789547936 309.4314577572098 312.89531011908116 301.9475139680569 312.89531011908116 293.033241153564C312.89531011908116 283.7288786048874 314.5712511992775 275.69591963429093 317.9375811276031 268.89102093797624C321.3039110559286 262.0716744737288 326.5484508155087 258.6620012416051 333.65675263841075 258.6620012416051C343.12004063434733 258.6620012416051 349.04362548676556 264.38331734296526 351.41305942773295 275.8259495456855H384.00722388396633C384.00722388396633 264.58558609402337 379.4850725210226 254.09650657486318 370.39742649133694 244.4165020599357S349.36147638128557 229.89649528754452 334.5525142502398 229.89649528754452C317.56193916135226 229.89649528754452 304.1688582877137 235.8200801399628 294.4166149331226 247.6528020768667C284.62102827473336 259.4999717817033 279.73768271347143 274.4389638241436 279.73768271347143 292.4119871324567C279.73768271347143 310.7751001749535 284.7221626502624 325.49737569840283 294.6911225238445 336.56436593487217C304.6456346294938 347.6458039392743 317.9375811276031 353.15040352164345 334.55251425023994 353.15040352164345C364.37270726338966 352.93368700265256 380.6697894915064 337.4456797787686 383.44376093459005 306.61414301032795H351.15299960494383C350.76290987076015 312.33545911168807 349.31813307748746 316.78537163496816 346.8331169930583 319.9638805801682C344.3769964444946 323.1423895253683 339.97042722501266 324.74609176590104 333.65675263841075 324.74609176590104z" />
    <glyph glyph-name="dollar"
      unicode="&#xE026;"
      horiz-adv-x="512" d=" M233.6 -11.199999999999989C172 -5.599999999999966 126.39999999999999 17.600000000000023 94.4 50.400000000000034L140 114.40000000000003C161.6 91.20000000000005 193.6 70.40000000000003 233.6 64.00000000000006V156.8C172.8 172 106.39999999999999 194.4 106.39999999999999 274.4C106.39999999999999 333.6 153.6 384.8 233.6 392.8V448H289.6V392C337.6 386.4 377.6 368.8 409.6 339.2L363.20000000000005 277.6C341.6 296.79999999999995 316.80000000000007 309.6 290.40000000000003 316V232.8C351.20000000000005 217.60000000000002 419.20000000000005 193.60000000000002 419.20000000000005 113.60000000000002C419.20000000000005 48 376.80000000000007 -2.3999999999999773 290.40000000000003 -11.199999999999989V-64H234.40000000000003V-11.199999999999989zM233.6 248V320C207.2 316.8 192 301.6 192 281.6C192 264.8 208.8 255.2 233.6 248zM289.6 142.39999999999998V63.19999999999999C318.40000000000003 68.80000000000001 333.6 86.39999999999998 333.6 104.80000000000001C332.8 124 314.4 134.39999999999998 289.6 142.39999999999998z" />
    <glyph glyph-name="download"
      unicode="&#xE027;"
      horiz-adv-x="512" d=" M459.7028571428571 145.0057142857143H512V-11.739428571428562H0V145.0057142857143H52.26057142857144V40.557714285714326H459.776V145.0057142857143H459.7028571428571zM409.16114285714286 237.42171428571427L256 84.33371428571428L102.83885714285714 237.42171428571427L139.73942857142856 274.3222857142857L229.85142857142856 184.2102857142857V395.776H282.112V184.1737142857143L372.224 274.28571428571433L409.16114285714286 237.42171428571427z" />
    <glyph glyph-name="downloadfile"
      unicode="&#xE028;"
      horiz-adv-x="512" d=" M356.79958169934645 155.20041830065355L271.20020915032677 70.39999999999998C269.5997908496732 68.79958169934639 267.2004183006536 67.19999999999993 264.00125490196075 65.59958169934634C261.60020915032675 64.79979084967312 258.40104575163394 63.999999999999886 256.0008366013072 63.999999999999886S250.40062745098035 64.79979084967312 248.00125490196075 65.59958169934634C245.60104575163393 66.4002091503267 243.20167320261433 67.99979084967316 240.80146405228757 70.39999999999998L155.2004183006536 155.20041830065355C147.2008366013072 163.2 147.2008366013072 176.79979084967317 155.2004183006536 185.59999999999997C163.20000000000002 193.60041830065356 176.79979084967323 193.60041830065356 185.60000000000002 185.59999999999997L234.39979084967325 136.80020915032674V256C234.39979084967325 268.0002091503268 243.99979084967327 277.6002091503268 256.00000000000006 277.6002091503268S277.5993725490197 268.0002091503268 277.5993725490197 256V136.8002091503268L326.40000000000003 185.60000000000002C334.39958169934647 193.6004183006536 347.99853594771247 193.6004183006536 356.79958169934645 185.60000000000002C364.8 177.5995816993464 364.8 163.99979084967322 356.79958169934645 155.20041830065355zM444.79999999999995 284.8L284.79999999999995 444.8C282.4006274509804 447.2002091503268 280.00041830065356 448 277.60104575163393 448H96C87.1997908496732 448 80 444.8 73.6 438.40000000000003S64 424.8002091503268 64 416V-32C64 -40.80020915032679 67.2 -48 73.6 -54.39999999999998C80 -60.799999999999955 87.1997908496732 -64 96 -64H416C424.8002091503268 -64 432 -60.799999999999955 438.4 -54.39999999999998C444.79832679738564 -48 448 -40.79853594771237 448 -32V277.6002091503268C448 280.00041830065356 447.20020915032677 282.3997908496732 444.79999999999995 284.8z" />
    <glyph glyph-name="edit"
      unicode="&#xE029;"
      horiz-adv-x="512" d=" M416.096 256.06399999999996L152.32 -7.711999999999989C151.136 -8.896000000000015 149.952 -9.503999999999962 148.768 -10.079999999999984L14.783999999999992 -63.42399999999998C13.024 -64 11.84 -64 10.656 -64C7.680000000000001 -64 5.312 -62.815999999999974 2.944000000000001 -61.05599999999998C0 -58.079999999999984 -0.608 -53.343999999999994 0.576 -49.21600000000001L53.92 84.76800000000003C54.528 85.95200000000006 55.104 87.13600000000002 56.288000000000004 88.28800000000001L320.064 352.096L416.096 256.06399999999996zM502.656 388.288L452.25600000000003 438.688C439.20000000000005 451.13599999999997 419.04 451.13599999999997 406.59200000000004 438.688L352.064 384.15999999999997L448.096 288.128L502.624 342.65599999999995C515.104 355.072 515.104 375.23199999999997 502.656 388.288z" />
    <glyph glyph-name="email"
      unicode="&#xE02A;"
      horiz-adv-x="512" d=" M0 392.77714285714285H512V340.6994285714286L309.9428571428571 186.66057142857142C296.99657142857143 177.0422857142857 281.19771428571426 172.25142857142862 262.5828571428571 172.25142857142862C244.18742857142854 172.25142857142862 228.4982857142857 177.0788571428572 215.51542857142854 186.69714285714286L0 350.42742857142855V392.77714285714285zM461.78742857142856 67.1451428571429V245.97942857142857L512 288.32914285714287V-8.777142857142849H0V298.0571428571429L50.21257142857144 255.37828571428574V66.81600000000009L145.8834285714286 187.28228571428582L186.36800000000002 157.51314285714295L94.13485714285719 41.398857142857196H418.1942857142858L330.6422857142858 151.18628571428576L371.1268571428571 181.0285714285714L461.78742857142856 67.1451428571429zM280.17371428571425 226.1942857142857L437.3577142857142 342.60114285714286H88.17371428571428L245.35771428571425 226.1942857142857C249.96571428571428 222.8297142857143 255.74399999999997 221.18400000000003 262.76571428571424 221.18400000000003C269.7508571428571 221.18400000000003 275.56571428571425 222.86628571428574 280.17371428571425 226.1942857142857z" />
    <glyph glyph-name="escalation-manager"
      unicode="&#xE02B;"
      horiz-adv-x="511.96800199987496" d=" M255.98400099993748 164.8176988938191C291.9817511405537 164.8176988938191 323.1798012624211 179.18480094994067 347.17830135616526 208.81494906568338C371.9767514530341 238.41309918130116 383.9760014999062 274.41084932191734 383.9760014999062 318.4080994937816C383.9760014999062 341.60664958440094 378.3763514780327 363.1733016686457 366.3771014311606 383.1720517467659S339.17880132491723 419.20179988750704 319.18005124679706 430.4010999312543C299.9812511718017 442.40034997812637 278.3826010874321 448 255.98400099993748 448S211.9867508280732 442.40034997812637 192.78795075307787 430.4010999312543C173.5251546778327 418.4018498843822 157.5261546153366 403.170801824886 145.52690456846452 383.1720517467659S127.99200049996874 341.606649584401 127.99200049996874 318.4080994937816C127.99200049996874 274.41084932191734 139.9912505468408 238.41309918130116 164.7897006437097 208.81494906568338C189.5881507405786 179.2167989500657 219.98625085932127 164.8176988938191 255.98400099993748 164.8176988938191zM197.58765077182665 377.60439972501723C214.38660083744773 394.40334979063806 233.58540091244285 403.2027998250109 255.98400099993748 403.2027998250109S297.58140116242726 394.4353477907631 314.3803512280483 377.6043997250172C331.14730329354427 360.8374476595213 339.1468033247923 340.83869758140116 339.1468033247923 318.4080994937816C339.1468033247923 287.17805137178925 331.14730329354427 261.61164927192056 315.14830323104815 240.81294919067557C299.1493031685521 220.0142491094307 279.9505030935567 209.5829010686832 255.95200299981255 209.5829010686832S211.9547528279483 219.98225110930565 196.75570276857698 240.81294919067557C181.4926567089558 261.5796512717955 172.75720267483283 288.0099993750391 172.75720267483283 318.4080994937816C172.78920067495775 340.8066995812762 180.7887007062058 360.8054496593963 197.58765077182665 377.60439972501723z M495.9690019373789 31.226048371976844C493.5691519280044 48.85694644084748 487.9695019061308 63.22404849696903 478.37010186863324 74.48734454096626C468.7707018311357 86.48659458783834 455.9715017811386 93.68614461596167 439.97250171864255 97.68589463158565C424.7734516592712 101.6856446472097 402.3748515717768 105.68539466283369 374.37660146240864 111.3170426848323L355.97775139053806 164.9456908943191C343.978501343666 154.54634085369668 330.3793512905444 146.54684082244864 315.98025123429784 140.14724079745025L339.97875132804194 72.15149053184183L352.7779513780388 69.75164052246743C392.775451534279 61.75214049121939 418.3738516342727 56.984438472595514 428.77320167489523 53.75264045997136C441.5084057246422 50.55284044747208 448.77195175301534 40.98543841009945 451.1398037622647 25.754390350603217C452.7717017686394 15.35504030998078 454.3716017748889 -14.243109805637062 457.5074057871381 -63.840009999374956H503.136553965377C499.1688019498781 -10.371351790513017 496.7689519405036 20.826698331354294 495.9690019373789 31.226048371976844z M297.58140116242726 52.02474845322172L255.98400099993748 118.4205987125805L214.38660083744773 52.02474845322172L237.5851509280669 30.426098368851967L212.78670083119798 -63.96800199987496L299.18130116867695 -63.96800199987496L274.3828510718081 30.426098368851967z M137.5914005374663 112.02099868758205C109.59315042809814 106.42134866570842 87.9945003437285 102.42159865008438 71.99550028123241 98.42184863446033S43.26129616898933 87.19055059058815 33.5979001312417 75.19130054371607C23.998500093744138 63.19205049684399 17.59890006874561 48.82494844072244 15.999000062496092 31.962002374851636C13.599150053121587 12.73120429973136 11.999250046872069 -19.26679582526083 8.799450034372805 -64.03199800012487H54.3966002124868C58.396350228110826 -10.43534779076299 59.996250234360346 19.194800324979724 60.79620023748533 25.562402349853244C62.39610024373485 40.82544840947452 70.3956002749829 50.360852446722106 83.16280232485481 53.56065245922139C94.39410036872704 55.96050246859579 119.92850446847086 61.56015249046942 159.15805262171125 69.55965252171751L171.92525467158316 71.95950253109186L195.9237547653273 139.95525279670028C181.52465470908072 146.35485282169867 168.69345665895898 154.35435285294676 156.6942066120869 164.72170489344427L137.5914005374663 112.02099868758205z" />
    <glyph glyph-name="escalation-sla"
      unicode="&#xE02C;"
      horiz-adv-x="512" d=" M56.031999999999925 448L56.031999999999925 400.8L435.23199999999997 400.8L435.23199999999997 112L307.23199999999997 -16.799999999999955L103.23199999999997 -16.799999999999955L103.23199999999997 182.39999999999998L56.031999999999925 182.39999999999998L56.031999999999925 -64L327.23199999999997 -64L482.39999999999986 92L482.39999999999986 448z M254.43200000000002 21.600000000000023L302.39999999999986 21.600000000000023L302.39999999999986 116L396.79999999999995 116L396.79999999999995 163.20000000000005L254.43200000000002 163.20000000000005z M139.23199999999997 269.6C139.23199999999997 299.20000000000005 110.43200000000002 305.6 100.83199999999988 307.20000000000005C68.03199999999993 315.20000000000005 62.43199999999979 316.80000000000007 62.43199999999979 327.20000000000005C62.43199999999979 338.40000000000003 72.83199999999988 341.6 82.43199999999979 341.6C96.0319999999997 341.6 107.23199999999974 337.6 108.0319999999997 321.6H136.0319999999997C136.0319999999997 352 111.23199999999974 363.20000000000005 84.0319999999997 363.20000000000005C60.83199999999965 363.20000000000005 35.23199999999974 350.40000000000003 35.23199999999974 324C35.23199999999974 300 54.43199999999979 292 73.63199999999983 287.20000000000005C92.83199999999988 281.6 112.03199999999993 280 112.03199999999993 265.6C112.03199999999993 252 96.83199999999988 249.60000000000002 86.43200000000002 249.60000000000002C71.23199999999997 249.60000000000002 57.63200000000006 256 57.63200000000006 273.6H29.632000000000062C28.832000000000107 241.60000000000002 56.03200000000015 227.20000000000005 84.83200000000011 227.20000000000005C120.79999999999995 228 139.23199999999997 246.39999999999998 139.23199999999997 269.6z M157.5999999999999 361.6L157.5999999999999 231.20000000000005L249.5999999999999 231.20000000000005L249.5999999999999 255.20000000000005L186.43200000000002 255.20000000000005L186.43200000000002 361.6z M302.39999999999986 361.6L252.79999999999995 232H281.5999999999999L292 260.79999999999995H340.76800000000003L350.36799999999994 232H380L331.23199999999997 361.6H302.39999999999986zM300.0319999999999 281.6L316.79999999999995 329.6L316.79999999999995 329.6L332.79999999999995 281.6H300.0319999999999z" />
    <glyph glyph-name="escalation-time"
      unicode="&#xE02D;"
      horiz-adv-x="512" d=" M305.5999999999999 192C305.5999999999999 272.79999999999995 455.1999999999998 294.4 455.1999999999998 448H56.799999999999955C56.799999999999955 320 206.39999999999986 264.79999999999995 206.39999999999986 192C206.39999999999986 111.20000000000005 56.799999999999955 89.60000000000002 56.799999999999955 -64H455.1679999999999C455.20000000000005 89.60000000000002 305.5999999999999 119.20000000000005 305.5999999999999 192zM83.23199999999997 -38.39999999999998C91.23199999999997 22.399999999999977 128.83199999999988 55.200000000000045 164.83199999999988 88C196.83199999999988 116.79999999999995 230.4319999999998 146.39999999999998 230.4319999999998 192C230.4319999999998 234.39999999999998 198.4319999999998 267.20000000000005 164.0319999999997 301.6C128.83199999999965 336.8 93.6319999999996 373.6 84.0319999999997 422.40000000000003H428.79999999999995C420.79999999999995 361.6 382.39999999999986 328.80000000000007 346.39999999999986 296C314.39999999999986 267.20000000000005 280.79999999999995 237.60000000000002 280.79999999999995 192C280.79999999999995 150.39999999999998 311.1679999999999 123.20000000000005 343.1679999999999 93.60000000000002C379.1679999999999 60.831999999999994 419.1679999999999 24.831999999999994 427.96799999999985 -38.39999999999998H83.23199999999997z M327.20000000000005 74.39999999999998C293.5999999999999 104.79999999999995 256 139.20000000000005 256 192C256 134.39999999999998 216.79999999999995 99.20000000000005 181.5999999999999 68C153.5999999999999 43.200000000000045 128 20.799999999999955 115.23199999999997 -12.799999999999955H396.8319999999999C383.20000000000005 24 356 48.799999999999955 327.20000000000005 74.39999999999998z" />
    <glyph glyph-name="eye-alt"
      unicode="&#xE02E;"
      horiz-adv-x="512.0106666666666" d=" M510.22933333333333 186.05866666666668C510.22933333333333 186.05866666666668 400 21.33333333333337 256 21.33333333333337S1.7813333333333334 186.05866666666668 1.7813333333333334 186.05866666666668C-0.5866666666666666 189.6106666666667 -0.5866666666666666 194.36800000000002 1.7813333333333334 197.92000000000002C1.7813333333333334 197.92000000000002 112 362.6666666666667 256 362.6666666666667S509.0453333333333 199.70133333333337 509.0453333333333 199.70133333333337L510.2293333333333 197.92000000000002C512.608 194.36800000000002 512.608 189.62133333333338 510.22933333333333 186.05866666666668zM352 192C352 244.736 308.7253333333333 288 256 288C202.66666666666666 288 160 244.736 160 192C160 138.66666666666669 202.66666666666666 96 256 96C308.74666666666667 96 352 138.66666666666669 352 192z" />
    <glyph glyph-name="eye"
      unicode="&#xE02F;"
      horiz-adv-x="512" d=" M189.43999999999997 374.1257142857143C211.712 380.7085714285714 233.91085714285714 384 256 384C278.0891428571428 384 300.288 380.7085714285714 322.56 374.1257142857143S365.1291428571428 358.9485714285714 383.56114285714284 348.2697142857143C401.9565714285714 337.59085714285715 419.2182857142857 325.4125714285714 435.4194285714285 311.6982857142857S465.1885714285714 284.0137142857143 476.26971428571426 269.824C487.3142857142857 255.63428571428574 495.98171428571425 241.73714285714289 502.4182857142857 228.096C508.8182857142857 214.528 512 202.45942857142856 512 192C512 181.50399999999996 508.8182857142857 169.47200000000004 502.4182857142857 155.8674285714286C496.05485714285714 142.22628571428578 487.3142857142857 128.32914285714287 476.26971428571426 114.1394285714286C465.1885714285714 99.91314285714293 451.54742857142855 85.97942857142863 435.4194285714285 72.2651428571429C419.2182857142857 58.55085714285718 401.9565714285714 46.33600000000007 383.56114285714284 35.69371428571435C365.20228571428567 24.97828571428579 344.832 16.42057142857152 322.56 9.837714285714299S278.0891428571428 0 256 0C233.91085714285714 0 211.712 3.2914285714285825 189.43999999999997 9.874285714285747C167.16799999999998 16.457142857142856 146.8342857142857 25.088000000000022 128.43885714285713 35.73028571428574C110.04342857142855 46.37257142857146 92.78171428571426 58.58742857142863 76.5805714285714 72.3017142857143C60.37942857142855 86.01600000000002 46.77485714285712 99.94971428571432 35.73028571428569 114.17599999999999C24.685714285714262 128.36571428571432 15.981714285714263 142.26285714285717 9.58171428571427 155.904C3.181714285714284 169.47200000000004 0 181.50399999999996 0 192C0 202.45942857142856 3.181714285714284 214.528 9.581714285714286 228.13257142857142C15.945142857142855 241.73714285714289 24.685714285714287 255.67085714285713 35.73028571428571 269.86057142857146C46.77485714285714 284.0502857142857 60.379428571428576 298.02057142857143 76.58057142857143 311.7348571428571C92.78171428571429 325.4491428571428 110.04342857142858 337.62742857142854 128.43885714285716 348.3062857142857C146.79771428571428 358.9485714285714 167.1314285714286 367.5794285714286 189.43999999999997 374.1257142857143zM199.424 54.41828571428573C218.29485714285715 48.603428571428594 237.12914285714285 45.71428571428572 256 45.71428571428572C274.8708571428571 45.71428571428572 293.70514285714285 48.603428571428594 312.576 54.41828571428573C331.44685714285714 60.19657142857142 348.37942857142855 67.76685714285713 363.30057142857146 76.9828571428572C378.25828571428576 86.19885714285721 392.3017142857143 96.47542857142861 405.4308571428571 107.70285714285717S429.5314285714286 129.97485714285716 438.272 140.83657142857146C446.97599999999994 151.69828571428576 453.888 161.6091428571429 458.8251428571428 170.64228571428572C463.7988571428571 179.74857142857144 466.2857142857143 186.8434285714286 466.2857142857143 192S463.7988571428571 204.2514285714286 458.8617142857143 213.28457142857144C453.88800000000003 222.3177142857143 447.0857142857143 232.3017142857143 438.30857142857144 243.12685714285715C429.568 253.98857142857142 418.59657142857145 265.0331428571429 405.504 276.26057142857144C392.4114285714286 287.488 378.33142857142855 297.72799999999995 363.41028571428575 306.9805714285714C348.416 316.23314285714287 331.55657142857143 323.7302857142857 312.64914285714286 329.5451428571428C293.70514285714285 335.36 274.8708571428571 338.2857142857143 256 338.2857142857143C237.12914285714285 338.2857142857143 218.29485714285715 335.36 199.424 329.58171428571427C180.58971428571428 323.76685714285713 163.65714285714284 316.23314285714287 148.69942857142857 307.01714285714286C133.74171428571427 297.76457142857146 119.6982857142857 287.52457142857145 106.56914285714284 276.29714285714283C93.43999999999998 265.0331428571429 82.46857142857142 253.98857142857142 73.72799999999998 243.12685714285715C64.95085714285713 232.26514285714288 58.11199999999998 222.3177142857143 53.17485714285713 213.28457142857144C48.201142857142855 204.2514285714286 45.71428571428571 197.15657142857145 45.71428571428571 192S48.201142857142855 179.74857142857144 53.13828571428571 170.71542857142856C58.075428571428574 161.6457142857143 64.95085714285713 151.6982857142857 73.69142857142856 140.8731428571428C82.46857142857142 130.0114285714285 93.40342857142856 118.96685714285712 106.53257142857142 107.7394285714285C119.66171428571428 96.51199999999994 133.70514285714285 86.30857142857138 148.66285714285712 77.01942857142853C163.65714285714284 67.80342857142858 180.58971428571428 60.196571428571474 199.424 54.41828571428573zM313.1245714285714 220.5622857142857L353.97485714285705 241.1154285714286C361.80114285714285 225.536 365.71428571428567 209.15200000000002 365.71428571428567 192C365.71428571428567 161.7188571428572 354.99885714285716 135.86285714285714 333.568 114.43200000000002S286.2811428571428 82.28571428571433 256 82.28571428571433S199.86285714285714 93.00114285714284 178.432 114.43200000000002S146.28571428571428 161.7188571428572 146.28571428571428 192S157.00114285714287 248.13714285714286 178.432 269.568S225.71885714285713 301.7142857142857 256 301.7142857142857V256C238.4822857142857 256 223.41485714285713 249.7097142857143 210.87085714285712 237.12914285714288C198.32685714285714 224.54857142857142 192 209.5177142857143 192 192S198.2902857142857 159.41485714285716 210.87085714285712 146.87085714285718C223.45142857142858 134.32685714285714 238.4822857142857 128 256 128S288.58514285714284 134.29028571428574 301.1291428571428 146.87085714285718C313.67314285714286 159.41485714285716 320 174.48228571428575 320 192C320 201.91085714285714 317.7325714285714 211.41942857142857 313.1245714285714 220.5622857142857z" />
    <glyph glyph-name="file"
      unicode="&#xE030;"
      horiz-adv-x="512" d=" M447.9573333333333 -31.93599999999998C447.9573333333333 -49.72799999999995 433.7279999999999 -63.93599999999998 415.9573333333333 -63.93599999999998H96.04266666666666C78.27199999999999 -63.93599999999998 64.04266666666666 -49.72799999999995 64.04266666666666 -31.93599999999998V415.93600000000004C64.04266666666666 433.70666666666665 78.27199999999999 447.936 96.04266666666666 447.936H277.3333333333333C280.29866666666663 447.936 282.66666666666663 446.74133333333333 284.99199999999996 444.97066666666666L444.99199999999996 284.992C446.7413333333333 282.624 447.9573333333333 280.256 447.9573333333333 277.2906666666667V-31.93599999999998z" />
    <glyph glyph-name="files"
      unicode="&#xE031;"
      horiz-adv-x="512" d=" M394.848 448V404.608H82.432V14.112000000000023H39.04V448H394.848zM117.152 369.88800000000003H472.96V78.91200000000003L330.848 -64H117.152V369.88800000000003zM429.568 96.80000000000001V326.528H160.544V-20.608000000000004H312.672L429.568 96.80000000000001zM308.064 100.86399999999998V14.111999999999966H264.672V144.25599999999997H394.848V100.86399999999998H308.064z" />
    <glyph glyph-name="folder-open"
      unicode="&#xE032;"
      horiz-adv-x="512" d=" M61.440000000000005 -3.730285714285685C56.905142857142856 -3.730285714285685 52.80914285714285 -3.3280000000000314 49.225142857142856 -2.5965714285713943C35.584 0.25600000000002865 23.95428571428572 8.009142857142876 14.372571428571437 20.77257142857144C4.790857142857143 33.49942857142861 0 51.01714285714286 0 73.39885714285714V387.6937142857143H182.60114285714286L200.8137142857143 342.19885714285715H418.70628571428574V296.70400000000006H170.09371428571427L151.62514285714283 342.19885714285715H45.53142857142857V73.3988571428572C45.53142857142857 64.51200000000006 46.29942857142857 57.52685714285724 47.79885714285714 52.516571428571524S52.26057142857142 44.21485714285723 56.61257142857143 42.678857142857225C60.416000000000004 41.179428571428616 64.32914285714286 41.252571428571514 68.42514285714286 42.971428571428646C72.48457142857143 44.72685714285717 75.6662857142857 48.09142857142865 77.97028571428571 53.2114285714286L169.54514285714285 260.2788571428572H512C453.5588571428571 120.32 422.2902857142857 45.82400000000001 418.1577142857143 36.717714285714294C412.8182857142857 24.758857142857153 405.8697142857143 15.030857142857144 397.23885714285717 7.570285714285717C388.608 0.07314285714284097 376.5394285714286 -3.657142857142901 360.9965714285715 -3.657142857142901H61.440000000000005V-3.730285714285685zM122.58742857142857 41.80114285714291H360.96000000000004C364.76342857142856 41.80114285714291 367.57942857142854 42.49600000000004 369.4811428571429 43.81257142857146C371.3462857142857 45.09257142857149 373.76000000000005 48.932571428571464 376.5394285714286 55.18628571428576C378.0388571428572 58.624000000000024 400.42057142857146 111.83542857142857 443.6845714285715 214.7474285714286H199.09485714285714C152.832 110.29942857142856 127.34171428571429 52.62628571428576 122.58742857142857 41.80114285714291z" />
    <glyph glyph-name="folder"
      unicode="&#xE033;"
      horiz-adv-x="511.87199999999996" d=" M0 351.95733333333334C0 369.728 14.229333333333333 383.95733333333334 32 383.95733333333334H216.8533333333333C226.32533333333333 383.95733333333334 236.99199999999996 376.25600000000003 239.9573333333333 366.7626666666667L255.93599999999998 319.95733333333334H479.87199999999996C497.664 319.95733333333334 511.87199999999996 305.728 511.87199999999996 287.95733333333334V32.02133333333336C511.87199999999996 14.250666666666746 497.664 0.021333333333359406 479.87199999999996 0.021333333333359406H32C14.229333333333333 0.021333333333359406 0 14.250666666666746 0 32.02133333333336V351.95733333333334z" />
    <glyph glyph-name="funnel"
      unicode="&#xE034;"
      horiz-adv-x="512" d=" M512 448H0L225.60041830065362 156.00020915032678V-64H285.59979084967324V156.00020915032678L512 448M389.5993725490196 387.9997908496732L256 215.19979084967318L122.39979084967321 387.9997908496732H389.5993725490196" />
    <glyph glyph-name="gear-alt"
      unicode="&#xE035;"
      horiz-adv-x="512" d=" M494.76266666666663 119.63733333333334C498.304 117.24800000000005 499.4986666666667 112.51200000000006 497.7493333333333 108.37333333333333C487.67999999999995 77.56799999999998 470.48533333333336 48.55466666666666 449.15200000000004 24.23466666666667C446.16533333333336 20.693333333333328 442.0266666666667 19.498666666666622 437.88800000000003 21.290666666666652L376.27733333333344 42.62399999999997C360.8746666666667 30.165333333333308 343.6800000000001 20.095999999999947 325.3333333333334 13.013333333333321L312.87466666666677 -50.98666666666668C312.27733333333344 -55.12533333333329 308.7360000000001 -58.70933333333329 304.59733333333344 -59.26400000000001C288.5973333333333 -62.25066666666663 272.5973333333333 -64 256 -64S223.40266666666665 -62.20799999999997 207.40266666666665 -59.26399999999995C203.26399999999995 -58.66666666666663 199.67999999999998 -55.12533333333329 199.12533333333332 -50.986666666666565L186.66666666666666 13.013333333333435C168.27733333333333 20.138666666666722 150.528 30.208000000000084 135.72266666666667 42.62400000000014L74.112 21.290666666666766C69.97333333333333 19.498666666666793 65.83466666666666 20.6933333333335 62.848 24.23466666666684C41.51466666666667 48.51200000000017 24.36266666666667 77.56800000000015 14.25066666666667 108.37333333333345C12.45866666666667 112.51200000000017 13.653333333333336 117.24800000000016 17.237333333333336 119.63733333333346L66.38933333333333 162.30400000000014C64.63999999999999 171.776 64.04266666666666 181.84533333333331 64.04266666666666 191.91466666666668S64.63999999999999 212.05333333333334 66.43199999999999 221.52533333333335L17.28 264.192C13.738666666666667 266.58133333333336 12.544 271.31733333333335 14.293333333333333 275.456C24.362666666666662 306.26133333333337 41.55733333333333 335.2746666666667 62.89066666666666 359.5946666666667C65.87733333333333 363.136 70.01599999999999 364.3306666666667 74.15466666666666 362.5386666666667L135.76533333333333 341.20533333333333C150.57066666666665 353.664 168.36266666666666 363.73333333333335 186.7093333333333 370.81600000000003L199.16799999999995 434.81600000000003C199.7653333333333 438.9546666666667 203.30666666666664 442.5386666666667 207.44533333333328 443.09333333333336C239.44533333333328 449.6213333333333 272.59733333333327 449.6213333333333 304.59733333333327 443.09333333333336C308.736 442.49600000000004 312.31999999999994 438.9546666666667 312.8746666666666 434.81600000000003L325.33333333333326 370.81600000000003C343.7226666666666 363.6906666666667 360.8746666666666 353.6213333333334 376.2773333333333 341.20533333333333L437.8879999999999 362.5386666666667C442.02666666666653 364.3306666666667 446.16533333333325 363.136 449.1519999999999 359.5946666666667C470.4853333333332 335.31733333333335 487.6373333333332 306.26133333333337 497.7493333333332 275.456C499.54133333333317 271.31733333333335 498.34666666666647 266.58133333333336 494.7626666666665 264.192L445.61066666666653 221.52533333333335C447.4026666666665 212.05333333333334 447.99999999999983 201.984 447.99999999999983 191.91466666666668S447.4026666666665 171.776 445.61066666666653 162.30400000000003L494.76266666666663 119.63733333333334zM352 191.91466666666668C352 244.65066666666667 308.736 287.9146666666667 256 287.9146666666667C202.66666666666666 287.9146666666667 160 244.65066666666667 160 191.91466666666668C160 138.58133333333336 202.66666666666666 95.91466666666673 256 95.91466666666673C308.736 95.9573333333334 352 138.62400000000002 352 191.91466666666668z" />
    <glyph glyph-name="gear"
      unicode="&#xE036;"
      horiz-adv-x="512" d=" M512 156.63542857142858V229.77828571428572H444.1965714285714L409.56342857142863 298.5325714285714L463.9817142857143 352.98742857142855L412.48914285714284 404.48L350.71999999999997 348.74514285714287L294.7291428571428 368.6034285714286V445.51314285714284H221.62285714285713V369.37142857142857L157.33028571428568 345.9291428571429L101.01028571428569 402.2491428571429L48.969142857142856 350.2445714285714L101.26628571428571 297.9474285714286L73.69142857142857 229.52228571428572H0V156.63542857142858H74.16685714285714L100.79085714285715 91.904L48.896 39.97257142857143L99.98628571428571 -11.08114285714288L153.41714285714286 42.3497142857143L222.28114285714287 15.104000000000042V-61.51314285714284H294.10742857142856V15.104000000000042L359.5702857142857 39.497142857142876L416.2925714285714 -13.092571428571432L467.0902857142857 37.741714285714295L415.3782857142857 98.26742857142858L444.23314285714287 156.59885714285718L512 156.63542857142858L512 156.63542857142858zM356.352 158.72000000000003L298.8251428571428 98.15771428571429L216.68571428571423 97.536L159.37828571428568 153.1977142857143L159.81714285714284 234.53257142857146L217.16114285714283 290.0114285714286L295.7165714285714 290.048L356.53485714285716 232.88685714285717L356.352 158.72000000000003z" />
    <glyph glyph-name="globe"
      unicode="&#xE037;"
      horiz-adv-x="512" d=" M512 192C512 50.37069543487536 397.62930456512464 -64 256 -64C114.37069543487536 -64 0 50.37069543487536 0 192C0 333.62930456512464 114.37069543487536 448 256 448C397.62930456512464 448 512 333.62930456512464 512 192zM383.99609922594016 117.33138294630345C383.99609922594016 158.8161150728348 350.8122142987749 192 309.33138294630345 192H266.6647162796367C234.66666666666663 192 213.33333333333331 208.000975193515 213.33333333333331 229.33040775278846C213.33333333333331 244.14554763210828 225.18778570122507 256 239.999024806485 256C261.3323581398183 256 261.9252757969159 234.66666666666666 277.32943255927347 234.66666666666666C289.18388492716525 234.66666666666666 298.6627658926068 244.14554763210825 298.6627658926068 256C298.6627658926068 276.7404156762358 288.58706649600776 287.4051319558725 278.5152678734686 297.4808313524715C284.44054367038456 308.74236606326565 298.0698482355092 338.36874504784544 298.6627658926068 381.03541171451207C298.6627658926068 386.36776985433045 295.10525995002126 391.1111111111111 289.77290181020294 391.70012799414883C278.51526787346864 393.4788809654416 267.25373316267445 394.66471627963676 255.99609922594013 394.66471627963676C165.923325409886 391.70012799414883 106.66276589260679 349.0334613274822 106.66276589260679 277.3294325592735C106.66276589260679 213.3294325592735 159.99804961297005 159.99804961297014 223.99804961297002 159.99804961297014H225.77680258426278C224.5909672700676 154.6656914731517 223.99804961297002 149.32943255927353 223.99804961297002 143.9931736453953C223.99804961297002 111.40220637532764 246.5172182604985 83.55067958798077 277.3294325592734 76.43956847686968V-0.003900774059786727C277.3294325592734 -5.933077345035599 282.07277381605405 -10.66861705369655 287.99804961297 -10.66861705369655C320 -10.664716279636707 383.99609922594016 42.666666666666686 383.99609922594016 117.33138294630345z" />
    <glyph glyph-name="help-desk"
      unicode="&#xE038;"
      horiz-adv-x="514.56" d=" M258.56 417.86514285714287C116.8457142857143 417.8285714285714 0 394.53257142857143 0 222.8297142857143C0 113.95657142857141 40.96 64.80457142857148 114.10285714285715 43.3737142857143V-33.79199999999997L180.992 31.012571428571505C204.87314285714282 28.635428571428633 231.24114285714282 27.79428571428582 257.536 27.79428571428582C399.25028571428567 27.830857142857212 514.56 51.16342857142865 514.56 222.82971428571437C514.56 394.53257142857143 400.2377142857142 417.8285714285714 258.56 417.86514285714287zM160.1462857142857 192C143.17714285714285 192 129.42628571428574 205.75085714285717 129.42628571428574 222.72C129.42628571428574 239.68914285714288 143.17714285714288 253.44 160.1462857142857 253.44C177.1154285714286 253.44 190.8662857142857 239.68914285714285 190.8662857142857 222.72C190.8662857142857 205.75085714285717 177.11542857142857 192 160.1462857142857 192zM258.56 192C241.59085714285712 192 227.84 205.75085714285717 227.84 222.72C227.84 239.68914285714288 241.59085714285715 253.44 258.56 253.44C275.52914285714286 253.44 289.28000000000003 239.68914285714285 289.28000000000003 222.72C289.28 205.75085714285717 275.52914285714286 192 258.56 192zM356.97371428571427 192C340.00457142857135 192 326.25371428571424 205.75085714285717 326.25371428571424 222.72C326.25371428571424 239.68914285714288 340.00457142857135 253.44 356.97371428571427 253.44C373.9794285714285 253.44 387.69371428571424 239.68914285714285 387.69371428571424 222.72C387.65714285714284 205.75085714285717 373.9428571428571 192 356.97371428571427 192z" />
    <glyph glyph-name="help"
      unicode="&#xE039;"
      horiz-adv-x="512" d=" M97.75786666666666 297.19893333333334L176.36693333333332 297.19893333333334L228.38613333333333 360.92586666666665L291.0549333333333 360.92586666666665L323.95946666666663 329.0794666666667L323.95946666666663 297.19893333333334L198.656 169.81333333333333L198.656 96.49493333333334L291.0549333333333 96.49493333333334L313.344 153.83893333333333L414.2762666666667 264.2944L414.2762666666667 360.92586666666665L324.9834666666667 448L191.21493333333333 448L97.75786666666666 355.60106666666667z M220.43306666666666 46.455466666666666L256.54613333333333 46.455466666666666L296.8917333333333 9.250133333333395L296.8917333333333 -23.654399999999953L258.6624 -64L220.43306666666666 -64L181.1456 -26.8288L181.1456 10.342400000000055z" />
    <glyph glyph-name="hidden"
      unicode="&#xE03A;"
      horiz-adv-x="512" d=" M508.8000000000002 199.2L508.8000000000002 199.2L496.0000000000002 218.43199999999996C489.60000000000014 228.03199999999998 476.76800000000026 244.0639999999999 460.73600000000033 260.09599999999995C444.7040000000004 276.09599999999995 428.67200000000025 292.128 406.24000000000024 308.1599999999999C387.00800000000027 324.19199999999995 364.57600000000025 336.9919999999999 335.74400000000014 349.8239999999999C310.1120000000001 359.4239999999999 281.24800000000005 362.6239999999999 255.6160000000002 362.6239999999999C229.98400000000015 362.6239999999999 201.12000000000012 359.4239999999999 172.28800000000024 346.6239999999999C165.88800000000015 343.4239999999999 156.2560000000003 340.22399999999993 149.85600000000022 333.79199999999986L111.39200000000028 372.25599999999986C104.96000000000026 378.65599999999984 95.36000000000035 378.65599999999984 88.96000000000026 372.25599999999986C82.56000000000017 365.82399999999984 82.56000000000017 356.2239999999999 88.96000000000026 349.82399999999984L428.67200000000025 10.07999999999987C431.9040000000002 6.879999999999825 435.07200000000034 6.879999999999825 441.4720000000002 6.879999999999825C447.9040000000002 6.879999999999825 451.10400000000027 6.879999999999825 454.3040000000003 10.07999999999987C460.7040000000004 16.479999999999848 460.7040000000004 26.11199999999991 454.3040000000003 32.51199999999989L409.4400000000003 77.37599999999992L409.4400000000003 77.37599999999992C428.67200000000025 93.40799999999996 447.9040000000002 109.43999999999988 463.9040000000002 128.67199999999997C483.1680000000001 147.90399999999994 492.76800000000026 160.704 499.1680000000001 167.1359999999999C505.60000000000014 173.5359999999999 508.8000000000002 179.93599999999986 512.0000000000002 186.36799999999988C512 192.76799999999997 512 196.00000000000006 508.8000000000002 199.2zM207.5200000000002 276.09600000000006C223.55200000000013 285.6960000000001 239.55200000000013 288.92800000000005 255.5840000000003 288.92800000000005C281.21600000000035 288.92800000000005 303.64800000000037 279.2960000000001 322.91200000000026 260.09600000000006C342.14400000000023 240.8640000000001 351.74400000000037 218.43200000000007 351.74400000000037 192.7680000000001C351.74400000000037 176.73600000000005 348.5120000000004 160.70400000000012 338.91200000000026 144.70400000000012L207.5200000000002 276.09600000000006z M255.6160000000002 96.608C229.98400000000015 96.608 207.55200000000013 106.23999999999995 188.28800000000024 125.44C169.05600000000027 144.704 159.45600000000013 167.13600000000002 159.45600000000013 192.76799999999997C159.45600000000013 208.8 162.6880000000001 224.8 169.0880000000002 237.632L101.76000000000022 304.92800000000005C85.76000000000022 292.1280000000001 66.49600000000032 276.09600000000006 50.46400000000017 256.8640000000001C31.2320000000002 237.63200000000012 18.432000000000244 224.83200000000005 15.200000000000273 218.40000000000003C8.800000000000182 208.8 5.600000000000364 202.368 2.4000000000003183 199.16800000000006C-0.8319999999996526 195.96800000000002 -0.8319999999996526 192.7680000000001 2.4000000000003183 186.3680000000001L15.200000000000273 170.33600000000007C21.600000000000364 160.70400000000012 34.432000000000244 144.70400000000012 50.46400000000017 128.67200000000008C66.4960000000001 112.64000000000004 85.72800000000007 96.60800000000012 104.96000000000026 80.57600000000008C124.19200000000023 64.57600000000008 149.8240000000003 51.744000000000085 175.48800000000028 38.91200000000009C204.3200000000004 26.112000000000137 229.98400000000038 22.880000000000052 255.6160000000002 22.880000000000052C281.2480000000003 22.880000000000052 310.1120000000003 29.31200000000007 338.9440000000002 42.14400000000006C345.3760000000002 45.34400000000011 351.7760000000003 48.54400000000004 358.2080000000001 51.744000000000085L300.51200000000017 109.47200000000004C287.64800000000014 99.83999999999997 271.64800000000014 96.608 255.6160000000002 96.608z" />
    <glyph glyph-name="hierarchy"
      unicode="&#xE03B;"
      horiz-adv-x="512" d=" M469.5097744360902 112.85461654135344H425.3353383458646V204.88469172932332H270.72481203007516V267.4651428571429H314.89924812030074C333.30526315789473 267.4651428571429 344.3488721804511 282.1899548872181 344.3488721804511 296.91476691729326V418.3944661654135C344.3488721804511 436.8004812030075 329.6240601503759 447.8440902255639 314.89924812030074 447.8440902255639H197.10075187969926C178.69473684210527 447.8440902255639 163.96992481203006 433.11927819548873 163.96992481203006 418.3944661654135V296.91476691729326C163.96992481203006 278.5087518796993 178.69473684210527 267.46514285714284 193.41954887218043 267.46514285714284H237.593984962406V208.56589473684213H90.34586466165413V116.53581954887215H42.490225563909775C24.084210526315793 116.53581954887215 13.040601503759403 101.811007518797 13.040601503759403 87.08619548872178V-34.394466165413576C13.040601503759403 -52.800481203007564 27.765413533834593 -63.844090225563946 42.490225563909775 -63.844090225563946H163.96992481203006C182.37593984962405 -63.844090225563946 193.41954887218043 -49.11927819548879 193.41954887218043 -34.394466165413576V87.08619548872178C193.41954887218043 105.49221052631577 178.69473684210524 116.53581954887215 163.96992481203006 116.53581954887215H119.7954887218045V175.43506766917295H392.20451127819547V116.53581954887215H348.0300751879699C329.6240601503759 116.53581954887215 318.5804511278195 101.811007518797 318.5804511278195 87.08619548872178V-34.394466165413576C318.5804511278195 -52.800481203007564 333.30526315789473 -63.844090225563946 348.0300751879699 -63.844090225563946H469.5097744360902C487.9157894736842 -63.844090225563946 498.9603609022556 -49.11927819548879 498.9603609022556 -34.394466165413576V87.08619548872178C498.9593984962406 101.811007518797 484.23458646616535 112.85461654135344 469.5097744360902 112.85461654135344z" />
    <glyph glyph-name="history"
      unicode="&#xE03C;"
      horiz-adv-x="512" d=" M376.5394285714285 -64V150.93028571428573H134.72914285714285V-64H25.709714285714288V448H134.72914285714285V246.8937142857143H376.5394285714285V448H486.29028571428563V-64H376.5394285714285z" />
    <glyph glyph-name="info"
      unicode="&#xE03D;"
      horiz-adv-x="512" d=" M256 448C290.60513713539393 448 323.7057030909882 441.2572921201567 355.2459730082716 427.7718763604702S414.09142359599474 396.06443186765347 437.0500653025685 373.10579016107965S478.23073574227254 322.8976926425773 491.716151501959 291.3016978667828S511.9442751414888 226.66086199390514 511.9442751414888 192.05572485851113C511.9442751414888 157.89638659120595 505.48019155420104 125.24161950370052 492.4962995211144 94.0914235959948S461.01175446234214 35.30169786678283 436.8828907270352 11.117109272964797S385.05877231171087 -31.568132346538903 353.9643012625163 -44.55202437962555S290.15933826730515 -64 256 -64C221.394862864606 -64 188.29429690901176 -57.257292120156706 156.75402699172835 -43.77187636047017S97.9085764040052 -12.00870700914237 74.94993469743142 10.949934697431502S33.713539399216366 61.21375707444497 20.22812363952982 92.75402699172838S0 157.39486286460607 0 192C0 226.2150631258163 6.464083587287766 258.81410535481064 19.447975620374397 289.96430126251636S50.932520679146705 348.7540269917283 75.11710927296473 372.88289072703526S126.94122768828906 415.62385720505006 158.03569873748364 428.5520243796256S221.7849368741837 448 256 448zM335.0178493687418 1.8110579016108659C360.0383108402263 12.175881584675722 382.2725293861558 26.998693948628727 401.609055289508 46.39094471049202S435.8241184153243 88.01741401828474 446.18894209838913 113.1493252067915S461.6804527644754 164.5833696125381 461.6804527644754 192C461.6804527644754 229.22420548541578 452.4858511101437 263.6064431867653 434.0966478014802 295.2024379625599S390.7427078798432 351.70744449281676 359.14671310404873 370.15237265999133S293.2242054854157 397.73617762298653 256 397.73617762298653C228.5833696125381 397.73617762298653 202.2812363952982 392.5537657814541 177.14932520679147 382.2446669569003S129.72747061384413 357.00130605137133 110.33521985198084 337.6647801480192S76.12015672616457 296.0383108402264 65.75533304309968 270.90639965171965S50.26382237701349 219.4166303874619 50.26382237701349 192C50.26382237701349 154.77579451458422 59.458424031345224 120.39355681323468 77.8476273400087 88.79756203744012S121.25729212015672 32.29255550718335 152.79756203744012 13.903352198519826S218.77579451458422 -13.680452764475376 256 -13.680452764475376C283.6395298215063 -13.680452764475376 309.9416630387462 -8.498040922942948 335.0178493687418 1.8110579016108659zM229.8650413582934 270.34915106660867V322.6190683500218H282.13495864170653V270.34915106660867H229.8650413582934zM229.8650413582934 61.380931649978265V239.03178058336962H282.13495864170653V61.380931649978265H229.8650413582934z" />
    <glyph glyph-name="invoiceflag-balance"
      unicode="&#xE03E;"
      horiz-adv-x="512" d=" M32 -64H224V448H32V-64zM96 384H192V0H96V384z M352 448H256V-64H480V320L352 448zM416 0H288V384H325.5993725490196L416 293.6002091503268V0z" />
    <glyph glyph-name="invoiceflag-exceeded"
      unicode="&#xE03F;"
      horiz-adv-x="512" d=" M288 192H320V160H288z M224 192H256V160H224z M480 192H512V160H480z M352 192H384V160H352z M416 192H448V160H416z M275.9997908496732 55.19979084967321C268.0002091503268 58.39979084967325 213.6002091503268 83.20000000000005 213.6002091503268 83.20000000000005C207.2002091503268 85.59937254901968 204.8 86.40000000000009 203.2004183006536 86.40000000000009C199.2006274509804 86.40000000000009 195.2008366013072 83.99979084967322 190.4004183006536 80.00000000000006L171.2004183006536 60.80000000000007L165.6002091503268 64C151.2006274509804 72.8002091503268 137.6 83.20000000000005 126.4004183006536 94.40041830065354C114.4002091503268 106.40062745098032 104.00041830065359 119.20062745098033 96.00083660130718 133.59937254901956L92.80083660130718 138.3997908496732L112.00083660130717 157.598954248366C116.00062745098037 161.59874509803922 118.40083660130718 165.59853594771243 118.40083660130718 168.79937254901955C119.20146405228756 172.79916339869277 118.40083660130718 175.99916339869276 116.00062745098037 179.99979084967316C116.00062745098037 179.99979084967316 90.40062745098038 235.19958169934634 87.20062745098038 242.39937254901955C86.39999999999999 243.99979084967316 85.60020915032679 245.59937254901953 84.80041830065359 247.19979084967315C84.00062745098037 247.99958169934635 83.20083660130717 249.59999999999997 81.60041830065359 251.19958169934634C80.7997908496732 251.99937254901957 79.99999999999999 252.79916339869274 78.40041830065358 253.59979084967318C77.60062745098037 256 75.20041830065358 256 73.60083660130718 256S69.60104575163398 256 64.00083660130718 254.39958169934638C56.00125490196078 251.99937254901957 48.000836601307185 248.79937254901958 40.000418300653585 244.79958169934636C32.80062745098038 240.79979084967317 25.60083660130718 235.19958169934634 19.20083660130718 229.60020915032675C13.599790849673203 224 7.999581699346405 217.60000000000002 4.7995816993464055 211.2C1.6004183006535948 204.00020915032678 0 196.79958169934642 0 189.59979084967318C0 172.00020915032678 7.199790849673203 149.60020915032675 20.799581699346405 122.40062745098032C34.3993725490196 95.20020915032677 53.6002091503268 68.80041830065352 77.5997908496732 45.599790849673184C101.6002091503268 21.599372549019563 127.20020915032678 2.4002091503267025 154.3997908496732 -11.20041830065361C181.6002091503268 -24.800209150326793 204.0002091503268 -32 221.59979084967318 -32H222.3995816993464C229.5993725490196 -32 236.7991633986928 -30.400418300653598 243.2 -26.400627450980437C250.3997908496732 -23.20062745098039 256 -17.59958169934646 261.5993725490196 -12.000209150326839C267.1995816993464 -5.600209150326862 272 1.599581699346345 275.9997908496732 8.799372549019552S283.1995816993464 23.999581699346322 285.59979084967324 31.9991633986927C287.2002091503268 38.39916339869268 287.2002091503268 43.19958169934637 286.4004183006536 46.3995816993463C285.5997908496732 49.5995816993464 281.6 52.79958169934639 275.9997908496732 55.19979084967321z M379.2004183006536 411.2004183006536C377.59999999999997 412.8 376.0004183006536 413.60062745098037 373.60020915032675 414.4004183006536C372.0006274509804 415.20104575163396 370.40104575163394 416.0008366013072 368.0008366013072 416.0008366013072S364.00104575163397 415.201045751634 361.6008366013072 414.4004183006536C360.0012549019608 413.60062745098037 357.601045751634 412.79999999999995 356.0014640522876 411.2004183006536L292.0014640522876 347.2004183006536C285.6014640522876 340.8004183006536 285.6014640522876 331.2004183006536 292.0014640522876 324.8004183006536C298.40146405228757 318.4004183006536 308.0014640522876 318.4004183006536 314.40146405228757 324.8004183006536L351.201045751634 361.60083660130715V240.00083660130716C351.201045751634 231.20062745098036 358.4008366013072 224.00083660130716 367.201045751634 224.00083660130716S383.201045751634 231.20062745098036 383.201045751634 240.00083660130716V361.60083660130715L420.00062745098046 324.8004183006536C426.40062745098044 318.40041830065354 436.00062745098046 318.40041830065354 442.40062745098044 324.8004183006536C448.79979084967323 331.20041830065355 448.79979084967323 340.8004183006536 442.40062745098044 347.20041830065355L379.2004183006536 411.2004183006536z" />
    <glyph glyph-name="invoiceflag-first"
      unicode="&#xE040;"
      horiz-adv-x="512" d=" M384 448H254.3995816993464C274.40020915032676 430.3995816993464 290.40020915032676 408.8002091503268 302.3995816993464 384H357.59853594771243L448 293.6002091503268V0H128V112C105.6 112 83.9997908496732 115.99979084967322 64 123.20041830065355V-64H512V320L384 448z M107.2004183006536 269.5997908496732L128 160L148.79958169934642 269.5997908496732L256 231.9995816993464L168.8002091503268 304L256 376.00041830065356L148.79958169934642 338.40020915032676L128 448L107.2004183006536 338.40020915032676L0 376.00041830065356L87.1997908496732 304L0 231.9995816993464z" />
    </font>
</defs>
</svg>
